<?xml version="1.0" encoding="utf-8"?>
<!-- Generator: Adobe Illustrator 16.0.3, SVG Export Plug-In . SVG Version: 6.00 Build 0)  -->
<!DOCTYPE svg PUBLIC "-//W3C//DTD SVG 1.1//EN" "http://www.w3.org/Graphics/SVG/1.1/DTD/svg11.dtd">
<svg version="1.1" id="Layer_1" xmlns="http://www.w3.org/2000/svg" xmlns:xlink="http://www.w3.org/1999/xlink" x="0px" y="0px"
	 width="57.071px" height="50px" viewBox="0 0 57.071 50" enable-background="new 0 0 57.071 50" xml:space="preserve">
<g>
	<path fill="#FFFFFF" d="M28.302,50c-4.272,0-8.296-1.171-11.662-3.388h-0.009l-0.235-0.162c-0.021-0.012-0.041-0.025-0.061-0.039
		l-0.625-0.436V45.97c-1.718-1.223-3.188-2.677-4.377-4.328c-1.38-1.919-2.347-4.062-2.873-6.37l-0.038-0.164l0-0.002l-0.051-0.212
		l-0.094-0.383l0.359-0.696c2.629-5.22,3.279-9.354,1.988-12.642c-0.966-2.46-2.905-4.046-4.856-5.393L0,11.796l4.686,0.027
		l2.328,0.017c2.124,0.014,4.398,0.14,6.627,0.962c1.549,0.572,2.956,1.461,4.197,2.65c1.281-2.595,1.43-5.468,1.6-8.727
		c0.011-0.211,0.022-0.423,0.034-0.636l0.326-6.081l3.583,4.925c1.119,1.537,2.605,4.65,3.404,8.138
		c1.089,4.756,0.584,8.694-1.499,11.709c-1.151,1.665-1.394,3.372-0.683,4.807c0.67,1.354,2.06,2.174,3.814,2.252h0.086
		c1.755-0.078,3.146-0.897,3.817-2.252c0.71-1.435,0.467-3.142-0.684-4.807c-1.143-1.653-1.816-3.622-2-5.852
		c-0.148-1.789,0.018-3.753,0.494-5.836l0.007-0.032c0.798-3.479,2.285-6.589,3.405-8.127L37.123,0l0.326,6.09
		c0.011,0.216,0.022,0.43,0.034,0.644c0.169,3.259,0.318,6.132,1.602,8.727c1.257-1.195,2.691-2.088,4.277-2.662
		c2.259-0.818,4.549-0.944,6.687-0.958h0.009l3.612-0.024l3.401-0.02l-3.864,2.663l-1.912,1.321
		c-1.844,1.272-3.898,2.846-4.935,5.412c-1.328,3.288-0.698,7.417,1.925,12.625l0.342,0.693l-0.167,0.758
		c-0.534,2.348-1.521,4.522-2.934,6.465c-1.324,1.821-2.99,3.396-4.95,4.682c-3.197,2.191-7.018,3.418-11.097,3.569v0.009
		l-0.423,0.003C28.91,49.998,28.764,50,28.617,50h-0.176C28.395,50,28.348,50,28.302,50z"/>
	
		<path id="path3002_2_" d="
		M36.234,3.008l-0.658,0.907L34.388,5.55c-0.974,1.338-2.432,4.259-3.233,7.756l-0.005,0.02c-0.797,3.495-0.908,7.598,1.347,10.859
		c1.514,2.189,1.552,4.268,0.76,5.867c-0.79,1.594-2.441,2.741-4.734,2.835c-0.004,0-0.008,0-0.012,0h-0.002l-0.035,0.003h-0.03
		l-0.033-0.003h-0.005c-0.004,0-0.008,0-0.012,0c-2.292-0.094-3.942-1.24-4.731-2.835c-0.792-1.6-0.753-3.678,0.76-5.867
		c2.259-3.268,2.141-7.381,1.339-10.879c-0.8-3.497-2.256-6.417-3.23-7.756l-1.188-1.635L20.686,3.01l-0.06,1.118l-0.109,2.019
		c-0.216,4.046-0.298,7.746-2.475,11.053c-1.441-1.705-3.067-2.788-4.764-3.414c-2.071-0.765-4.203-0.884-6.272-0.897L4.68,12.87
		l-1.292-0.007l1.062,0.732l1.916,1.322c1.783,1.23,4.098,2.975,5.236,5.872c1.139,2.899,1.204,7.079-2.028,13.496
		c0,0,0,0.001,0,0.002l-0.117,0.227l-0.067,0.129l0.035,0.142l0.057,0.251c0,0.001,0,0.002,0,0.003
		c1.024,4.494,3.756,8.02,7.276,10.382v0.008l0.171,0.119c0.024,0.017,0.001-0.002,0.008,0.002c0.007,0.005,0.023,0.017,0.007,0.005
		c-0.004-0.003,0.008,0.004,0.002,0c3.416,2.338,7.471,3.422,11.49,3.397c-0.003,0,0.023,0,0.047,0c0.001,0,0.001,0,0.002,0
		c0.006,0,0.01,0,0.01,0c4.021,0.021,8.078-1.062,11.493-3.404c-0.007,0.004-0.004,0.002,0.007-0.005
		c3.604-2.362,6.402-5.938,7.442-10.507v-0.003l0.057-0.253l0.03-0.137l-0.062-0.127l-0.114-0.229
		c-3.231-6.415-3.132-10.587-1.96-13.488c1.17-2.898,3.522-4.647,5.31-5.882l1.914-1.322l1.063-0.732l-1.292,0.007l-2.326,0.018
		h-0.002c-2.069,0.014-4.233,0.133-6.336,0.895c-1.725,0.625-3.384,1.707-4.841,3.42c-2.179-3.308-2.258-7.01-2.475-11.056
		l-0.109-2.019L36.234,3.008L36.234,3.008z"/>
	
		<linearGradient id="path2989_3_" gradientUnits="userSpaceOnUse" x1="-638.4219" y1="-625.2168" x2="-595.3584" y2="-625.2168" gradientTransform="matrix(1 0 0 -1 645.4219 -598.1953)">
		<stop  offset="0" style="stop-color:#BB2C26"/>
		<stop  offset="0.4" style="stop-color:#E07823"/>
		<stop  offset="0.5" style="stop-color:#F7981D"/>
		<stop  offset="0.6" style="stop-color:#E07823"/>
		<stop  offset="1" style="stop-color:#BB2C26"/>
	</linearGradient>
	<path id="path2989_2_" fill="url(#path2989_3_)" d="M21.63,6.206
		c-0.24,4.485-0.296,8.935-3.572,12.844c-3.086-4.546-7-5.022-11.058-5.049c3.627,2.505,10.217,7.586,3.567,20.787
		c0.975,4.282,3.585,7.614,6.993,9.84c3.211,2.203,7.047,3.231,10.868,3.208c0.021,0,0.041,0,0.061,0
		c3.826,0.023,7.668-1.008,10.882-3.217c3.402-2.226,6.006-5.555,6.979-9.831c-6.65-13.201,0.085-18.282,3.712-20.787
		c-4.058,0.026-8.115,0.503-11.201,5.049c-3.276-3.909-3.334-8.358-3.574-12.844c-1.633,2.243-5.865,11.569-1.875,17.343
		c3.407,4.931,0.459,10.244-4.858,10.453l-0.098,0.004l-0.095-0.004c-5.317-0.209-8.266-5.522-4.859-10.453
		C27.496,17.775,23.263,8.449,21.63,6.206L21.63,6.206z"/>
</g>
</svg>
