<?xml version="1.0" encoding="utf-8"?>
<!-- Generator: Adobe Illustrator 16.0.3, SVG Export Plug-In . SVG Version: 6.00 Build 0)  -->
<!DOCTYPE svg PUBLIC "-//W3C//DTD SVG 1.1//EN" "http://www.w3.org/Graphics/SVG/1.1/DTD/svg11.dtd">
<svg version="1.1" id="Layer_1" xmlns="http://www.w3.org/2000/svg" xmlns:xlink="http://www.w3.org/1999/xlink" x="0px" y="0px"
	 width="54.727px" height="50px" viewBox="0 0 54.727 50" enable-background="new 0 0 54.727 50" xml:space="preserve">
<g>
	<g id="layer1" transform="translate(613.3437,-45.544512)"> 
		
			<path id="path3002" fill="#FFFFFF" d="
			M-577.599,45.544l-0.716,0.987l-1.293,1.779c-1.06,1.456-2.647,4.634-3.518,8.44l-0.005,0.021
			c-0.868,3.803-0.988,8.268,1.466,11.817c1.647,2.383,1.688,4.645,0.827,6.385c-0.859,1.735-2.657,2.983-5.151,3.086
			c-0.005,0-0.009,0-0.014,0h-0.003l-0.038,0.003h-0.033l-0.035-0.003h-0.006c-0.004,0-0.009,0-0.013,0
			c-2.494-0.103-4.29-1.351-5.149-3.086c-0.862-1.74-0.82-4.002,0.827-6.385c2.458-3.556,2.33-8.032,1.458-11.839
			c-0.871-3.806-2.455-6.983-3.515-8.44l-1.293-1.779l-0.716-0.984l-0.065,1.217l-0.119,2.196c-0.235,4.402-0.324,8.43-2.693,12.028
			c-1.569-1.856-3.338-3.034-5.184-3.716c-2.254-0.832-4.574-0.962-6.826-0.977l-2.531-0.019l-1.406-0.008l1.155,0.797l2.085,1.439
			c1.94,1.339,4.46,3.236,5.698,6.391c1.239,3.155,1.31,7.703-2.207,14.687c0,0.001,0,0.002,0,0.002l-0.127,0.247l-0.073,0.141
			l0.038,0.153l0.062,0.273c0,0.001,0,0.002,0,0.003c1.115,4.891,4.088,8.728,7.918,11.298v0.009l0.187,0.13
			c0.026,0.018,0.001-0.002,0.008,0.002c0.008,0.005,0.026,0.019,0.008,0.006c-0.005-0.003,0.009,0.005,0.002,0
			c3.717,2.544,8.131,3.724,12.505,3.697c-0.004,0,0.025,0,0.051,0c0.001-0.001,0.001,0,0.002,0c0.007,0,0.011,0,0.011,0
			c4.376,0.023,8.79-1.155,12.507-3.705c-0.007,0.005-0.004,0.003,0.008-0.006c3.922-2.57,6.967-6.462,8.1-11.434v-0.002
			l0.062-0.276l0.032-0.148l-0.067-0.139l-0.125-0.249c-3.517-6.98-3.409-11.521-2.133-14.678c1.273-3.155,3.833-5.059,5.779-6.401
			l2.083-1.439l1.157-0.797l-1.406,0.008l-2.531,0.019h-0.003c-2.251,0.015-4.607,0.145-6.896,0.974
			c-1.877,0.681-3.683,1.858-5.268,3.722c-2.371-3.6-2.458-7.628-2.693-12.031l-0.119-2.196L-577.599,45.544L-577.599,45.544z"/>
		<path id="path2989" d="M-593.491,49.025c-0.261,4.882-0.322,9.724-3.888,13.978
			c-3.358-4.946-7.618-5.466-12.034-5.494c3.948,2.726,11.119,8.256,3.883,22.622c1.061,4.659,3.901,8.286,7.61,10.708
			c3.495,2.397,7.669,3.517,11.828,3.491c0.022,0,0.044,0,0.067,0c4.164,0.025,8.344-1.097,11.842-3.501
			c3.702-2.422,6.536-6.045,7.596-10.698c-7.237-14.366,0.092-19.896,4.04-22.622c-4.416,0.028-8.832,0.548-12.189,5.494
			c-3.565-4.254-3.628-9.096-3.89-13.978c-1.777,2.441-6.383,12.591-2.04,18.874c3.708,5.365,0.5,11.148-5.287,11.375l-0.106,0.005
			l-0.104-0.005c-5.787-0.227-8.996-6.01-5.288-11.375C-587.108,61.616-591.714,51.466-593.491,49.025L-593.491,49.025z"/>
	</g>
</g>
</svg>
