<?xml version="1.0" encoding="utf-8"?>
<!-- Generator: Adobe Illustrator 16.0.3, SVG Export Plug-In . SVG Version: 6.00 Build 0)  -->
<!DOCTYPE svg PUBLIC "-//W3C//DTD SVG 1.1//EN" "http://www.w3.org/Graphics/SVG/1.1/DTD/svg11.dtd">
<svg version="1.1" id="Layer_1" xmlns="http://www.w3.org/2000/svg" xmlns:xlink="http://www.w3.org/1999/xlink" x="0px" y="0px"
	 width="54.727px" height="50px" viewBox="0 0 54.727 50" enable-background="new 0 0 54.727 50" xml:space="preserve">
<g id="layer1_2_" transform="translate(613.3437,-45.544512)">
	
		<path id="path3002_1_" d="
		M-577.599,45.544l-0.716,0.987l-1.293,1.779c-1.06,1.456-2.647,4.634-3.518,8.44l-0.005,0.021
		c-0.868,3.803-0.988,8.268,1.465,11.817c1.647,2.383,1.689,4.645,0.828,6.385c-0.859,1.735-2.657,2.983-5.151,3.086
		c-0.005,0-0.009,0-0.014,0h-0.003l-0.038,0.002h-0.033l-0.035-0.002h-0.005c-0.004,0-0.009,0-0.013,0
		c-2.495-0.103-4.29-1.351-5.149-3.086c-0.862-1.74-0.82-4.002,0.827-6.385c2.458-3.556,2.33-8.031,1.458-11.839
		c-0.871-3.806-2.455-6.983-3.515-8.44l-1.293-1.779l-0.716-0.984l-0.065,1.217l-0.119,2.195c-0.235,4.403-0.324,8.431-2.693,12.029
		c-1.569-1.856-3.338-3.034-5.184-3.716c-2.254-0.832-4.574-0.962-6.826-0.977l-2.531-0.019l-1.406-0.008l1.155,0.798l2.085,1.438
		c1.94,1.339,4.459,3.236,5.698,6.39c1.239,3.156,1.311,7.704-2.207,14.688c0,0.001,0,0.002,0,0.003l-0.127,0.246l-0.073,0.14
		l0.038,0.154l0.062,0.273c0,0.001,0,0.002,0,0.003c1.115,4.891,4.087,8.728,7.918,11.299v0.008l0.187,0.13
		c0.026,0.018,0.001-0.002,0.008,0.002c0.007,0.005,0.026,0.019,0.008,0.006c-0.005-0.003,0.009,0.004,0.002,0
		c3.717,2.544,8.131,3.724,12.505,3.697c-0.004,0,0.025,0,0.051,0c0.001-0.001,0.001,0,0.003,0c0.006,0,0.011,0,0.011,0
		c4.376,0.023,8.79-1.155,12.507-3.705c-0.008,0.005-0.004,0.003,0.008-0.006c3.922-2.57,6.967-6.462,8.1-11.434v-0.003l0.062-0.275
		l0.033-0.149l-0.068-0.138l-0.125-0.248c-3.517-6.981-3.409-11.521-2.134-14.68c1.274-3.154,3.833-5.058,5.779-6.4l2.083-1.438
		l1.157-0.798l-1.406,0.008l-2.531,0.019h-0.002c-2.251,0.015-4.607,0.145-6.896,0.974c-1.877,0.681-3.683,1.857-5.268,3.722
		c-2.371-3.6-2.458-7.628-2.693-12.032l-0.119-2.195L-577.599,45.544L-577.599,45.544z"/>
	
		<linearGradient id="path2989_3_" gradientUnits="userSpaceOnUse" x1="-1214.3965" y1="-614.5786" x2="-1167.5317" y2="-614.5786" gradientTransform="matrix(1 0 0 -1 604.9835 -542.9012)">
		<stop  offset="0" style="stop-color:#8D742F"/>
		<stop  offset="0.4" style="stop-color:#D5BC76"/>
		<stop  offset="0.5" style="stop-color:#F9DF96"/>
		<stop  offset="0.6" style="stop-color:#D5BC76"/>
		<stop  offset="1" style="stop-color:#8D742F"/>
	</linearGradient>
	<path id="path2989_1_" fill="url(#path2989_3_)" d="M-593.491,49.025
		c-0.261,4.882-0.322,9.724-3.888,13.978c-3.358-4.946-7.618-5.466-12.034-5.494c3.948,2.726,11.119,8.256,3.883,22.622
		c1.061,4.659,3.901,8.286,7.61,10.708c3.495,2.397,7.669,3.517,11.828,3.491c0.022,0,0.044,0,0.067,0
		c4.164,0.025,8.344-1.097,11.842-3.501c3.702-2.422,6.536-6.045,7.596-10.698c-7.237-14.366,0.092-19.896,4.04-22.622
		c-4.416,0.028-8.831,0.548-12.189,5.494c-3.565-4.254-3.629-9.096-3.89-13.978c-1.777,2.441-6.383,12.591-2.04,18.874
		c3.708,5.365,0.499,11.148-5.288,11.375l-0.106,0.005l-0.104-0.005c-5.787-0.227-8.996-6.01-5.288-11.375
		C-587.108,61.616-591.714,51.466-593.491,49.025L-593.491,49.025z"/>
</g>
</svg>
