<?xml version="1.0" encoding="utf-8"?>
<!-- Generator: Adobe Illustrator 16.0.3, SVG Export Plug-In . SVG Version: 6.00 Build 0)  -->
<!DOCTYPE svg PUBLIC "-//W3C//DTD SVG 1.1//EN" "http://www.w3.org/Graphics/SVG/1.1/DTD/svg11.dtd">
<svg version="1.1" id="Layer_1" xmlns="http://www.w3.org/2000/svg" xmlns:xlink="http://www.w3.org/1999/xlink" x="0px" y="0px"
	 width="42.255px" height="50px" viewBox="0 0 42.255 50" enable-background="new 0 0 42.255 50" xml:space="preserve">
<g>
	<path fill="#FFFFFF" d="M21.144,0l-1.658,3.926c-0.678,1.615-1.531,3.323-1.939,3.883c-3.141,1.256-5.564,2.586-7.341,3.572
		c-0.947,0.521-2.022,1.119-2.361,1.193c-0.039-0.01-0.858-0.221-1.982-1.223c-1.904-1.241-0.54-3.484-0.54-3.484L3.128,7.975
		C2.372,7.995,1.316,8.343,0.625,9.262c-0.437,0.588-0.874,1.614-0.457,3.18c0.329,1.257,1.635,6.061,2.94,10.566l0.132,0.427
		l0.305,0.334l4.235,4.284l-3.048,0.049l0.692,2.292c0.515,1.747,2.031,4.083,3.224,5.762c-0.696,0.23-1.329,0.584-1.864,1.065
		l-0.604,0.564l0.029,0.834c0.029,0.652-0.01,1.496-0.054,1.992C5.631,45.598,2.44,49.98,2.44,49.98s7.499-1.831,11.126-5.58
		c0.397-0.393,0.722-0.814,0.967-1.267c3.033,3.348,5.256,5.541,5.354,5.63L21.144,50l1.247-1.237
		c0.098-0.098,2.312-2.282,5.31-5.619c0.241,0.432,0.56,0.835,0.933,1.197c4.187,3.971,11.126,5.64,11.126,5.64
		s-3.382-6.292-3.661-9.379c-0.044-0.486-0.073-1.33-0.054-1.983l0.034-0.834l-0.604-0.564c-0.535-0.48-1.168-0.834-1.865-1.064
		c1.197-1.732,2.699-4.005,3.229-5.752l0.667-2.232l-3.008-0.04l4.2-4.363l0.314-0.323l0.118-0.427
		c1.33-4.516,2.625-9.32,2.959-10.577c0.412-1.556-0.02-2.591-0.471-3.18c-0.668-0.918-1.743-1.266-2.498-1.285l-2.292-0.064
		c0,0,1.418,2.115-0.441,3.44c-1.114,1.001-1.949,1.212-2.101,1.212c-0.222-0.063-1.291-0.662-2.253-1.192
		c-1.771-0.977-4.187-2.307-7.313-3.563c-0.412-0.56-1.267-2.253-1.938-3.867L21.144,0z"/>
	<path d="M12.66,38.591c1.183,1.247,0.941,3.278-0.285,4.485c-2.498,2.243-6.518,4.055-6.518,4.055s1.757-2.769,2.086-6.366
		c0.049-0.554,0.088-1.492,0.059-2.232C9.239,37.403,11.481,37.354,12.66,38.591 M34.324,40.767
		c-0.049-0.555-0.088-1.497-0.059-2.233c-1.237-1.133-3.489-1.178-4.657,0.06c-1.198,1.246-0.947,3.278,0.279,4.485
		c2.498,2.242,6.527,4.054,6.527,4.054S34.648,44.359,34.324,40.767 M18.49,9.364c-5.652,2.213-9.05,4.803-10.386,4.976
		c-0.778,0.063-2.081-0.467-3.417-1.648c-1.628-1.453-1.571-2.619-1.506-2.937c-0.381,0.013-1.796,0.351-1.279,2.226
		c0.315,1.262,1.615,6.046,2.927,10.533l4.85,4.941c0.316,0.354,0.799,1.237,0.131,2.026c-0.765,0.892-1.801,0.719-2.328,0.546
		c-0.218-0.067-0.355-0.132-0.355-0.132c0.597,1.929,2.893,5.074,3.065,5.335c0.342-0.07,2.916-0.483,4.759,1.556
		c1.784,1.979,0.907,4.297,0.643,4.838c3.175,3.53,5.544,5.861,5.544,5.861s2.373-2.322,5.539-5.86
		c-0.265-0.535-1.142-2.853,0.634-4.842c1.843-2.027,4.434-1.631,4.769-1.552c0.166-0.26,2.466-3.412,3.055-5.341
		c0,0-0.143,0.074-0.353,0.137c-0.529,0.176-1.565,0.342-2.346-0.543c-0.637-0.8-0.154-1.672,0.157-2.025l4.839-4.947
		c1.32-4.492,2.604-9.278,2.935-10.536c0.51-1.874-0.905-2.213-1.293-2.222c0.074,0.313,0.157,1.483-1.494,2.937
		c-1.335,1.18-2.654,1.714-3.431,1.647c-1.324-0.174-4.727-2.757-10.364-4.977c-0.801-0.321-2.645-4.732-2.645-4.732
		S19.284,9.046,18.49,9.364 M17.509,31.229l-6.276-8.838l-0.001-3.249l6.277,5.212V31.229z M31.037,22.392L24.75,31.23V24.35
		l6.287-5.207V22.392z"/>
</g>
</svg>
