<?xml version="1.0" encoding="utf-8"?>
<!-- Generator: Adobe Illustrator 16.0.3, SVG Export Plug-In . SVG Version: 6.00 Build 0)  -->
<!DOCTYPE svg PUBLIC "-//W3C//DTD SVG 1.1//EN" "http://www.w3.org/Graphics/SVG/1.1/DTD/svg11.dtd">
<svg version="1.1" id="Layer_1" xmlns="http://www.w3.org/2000/svg" xmlns:xlink="http://www.w3.org/1999/xlink" x="0px" y="0px"
	 width="42.256px" height="50px" viewBox="0 0 42.256 50" enable-background="new 0 0 42.256 50" xml:space="preserve">
<g>
	<path d="M21.144,0l-1.658,3.926c-0.678,1.615-1.531,3.323-1.939,3.883c-3.141,1.256-5.564,2.586-7.341,3.572
		c-0.947,0.521-2.022,1.119-2.361,1.193c-0.039-0.01-0.858-0.221-1.982-1.223c-1.904-1.241-0.54-3.484-0.54-3.484L3.128,7.975
		C2.372,7.995,1.316,8.343,0.625,9.262c-0.437,0.588-0.874,1.614-0.457,3.18c0.329,1.257,1.635,6.061,2.94,10.566l0.132,0.427
		l0.305,0.334l4.235,4.284l-3.048,0.049l0.692,2.292c0.515,1.747,2.031,4.083,3.224,5.762c-0.696,0.23-1.329,0.584-1.864,1.065
		l-0.604,0.564l0.029,0.834c0.029,0.652-0.01,1.496-0.054,1.992C5.631,45.598,2.44,49.98,2.44,49.98s7.499-1.831,11.126-5.58
		c0.397-0.393,0.722-0.814,0.967-1.267c3.033,3.348,5.256,5.541,5.354,5.63L21.144,50l1.247-1.237
		c0.098-0.098,2.312-2.282,5.31-5.619c0.241,0.432,0.56,0.835,0.933,1.197c4.187,3.971,11.126,5.64,11.126,5.64
		s-3.382-6.292-3.661-9.379c-0.044-0.486-0.073-1.33-0.054-1.983l0.034-0.834l-0.604-0.564c-0.535-0.48-1.168-0.834-1.865-1.064
		c1.197-1.732,2.699-4.005,3.229-5.752l0.667-2.232l-3.008-0.04l4.2-4.363l0.314-0.323l0.118-0.427
		c1.33-4.516,2.625-9.32,2.959-10.577c0.412-1.556-0.02-2.591-0.471-3.18c-0.668-0.918-1.743-1.266-2.498-1.285l-2.292-0.064
		c0,0,1.418,2.115-0.441,3.44c-1.114,1.001-1.949,1.212-2.101,1.212c-0.222-0.063-1.291-0.662-2.253-1.192
		c-1.771-0.977-4.187-2.307-7.313-3.563c-0.412-0.56-1.267-2.253-1.938-3.867L21.144,0z"/>
	<path fill="#B8D3DD" d="M12.66,38.591c1.183,1.247,0.941,3.278-0.285,4.485c-2.498,2.243-6.518,4.055-6.518,4.055
		s1.757-2.769,2.086-6.366c0.049-0.554,0.088-1.492,0.059-2.232C9.239,37.403,11.481,37.354,12.66,38.591"/>
	<path fill="#B8D3DD" d="M34.324,40.767c0.324,3.593,2.091,6.365,2.091,6.365s-4.029-1.812-6.527-4.054
		c-1.227-1.207-1.478-3.239-0.28-4.485c1.169-1.237,3.421-1.192,4.658-0.059C34.236,39.27,34.275,40.212,34.324,40.767"/>
	<g>
		<g>
			<defs>
				<path id="SVGID_99_" d="M18.49,9.364c0.794-0.318,2.649-4.736,2.649-4.736s1.843,4.412,2.644,4.732
					c5.639,2.221,9.04,4.804,10.365,4.978c0.775,0.066,2.096-0.468,3.43-1.648c1.651-1.453,1.569-2.623,1.495-2.936
					c0.387,0.009,1.802,0.348,1.292,2.222c-0.331,1.257-1.613,6.044-2.934,10.535l-4.839,4.947
					c-0.312,0.354-0.795,1.226-0.158,2.025c0.781,0.886,1.816,0.72,2.346,0.544c0.211-0.063,0.354-0.137,0.354-0.137
					c-0.59,1.929-2.89,5.081-3.055,5.341c-0.335-0.079-2.927-0.476-4.769,1.552c-1.776,1.988-0.899,4.307-0.635,4.841
					c-3.165,3.539-5.538,5.861-5.538,5.861s-2.37-2.332-5.545-5.861c0.265-0.542,1.142-2.858-0.642-4.838
					c-1.844-2.039-4.418-1.626-4.759-1.557c-0.174-0.26-2.47-3.405-3.066-5.335c0,0,0.139,0.064,0.355,0.133
					c0.528,0.173,1.563,0.346,2.329-0.546c0.667-0.79,0.186-1.672-0.131-2.026l-4.851-4.941c-1.312-4.487-2.61-9.271-2.927-10.533
					c-0.517-1.875,0.898-2.213,1.28-2.226c-0.066,0.317-0.122,1.483,1.505,2.937c1.337,1.182,2.639,1.711,3.417,1.648
					C9.44,14.167,12.838,11.577,18.49,9.364 M17.509,24.354l-6.276-5.212v3.249l6.276,8.838V24.354z M31.037,19.143L24.75,24.35
					v6.881l6.287-8.839V19.143z"/>
			</defs>
			<clipPath id="SVGID_2_">
				<use xlink:href="#SVGID_99_"  overflow="visible"/>
			</clipPath>
			
				<linearGradient id="SVGID_3_" gradientUnits="userSpaceOnUse" x1="-588.9307" y1="-477.6689" x2="-579.1155" y2="-477.6689" gradientTransform="matrix(2.1299 -3.6891 3.6891 2.1299 3026.1309 -1114.4141)">
				<stop  offset="0" style="stop-color:#4D666F"/>
				<stop  offset="0.1" style="stop-color:#4D666F"/>
				<stop  offset="0.4735" style="stop-color:#C3DEE7"/>
				<stop  offset="0.5355" style="stop-color:#C3DEE7"/>
				<stop  offset="0.9" style="stop-color:#4D666F"/>
				<stop  offset="1" style="stop-color:#4D666F"/>
			</linearGradient>
			<polygon clip-path="url(#SVGID_2_)" fill="url(#SVGID_3_)" points="-16.912,35.764 9.568,-10.103 53.718,15.387 27.236,61.253 
							"/>
		</g>
	</g>
</g>
</svg>
