<?xml version="1.0" encoding="utf-8"?>
<!-- Generator: Adobe Illustrator 16.0.3, SVG Export Plug-In . SVG Version: 6.00 Build 0)  -->
<!DOCTYPE svg PUBLIC "-//W3C//DTD SVG 1.1//EN" "http://www.w3.org/Graphics/SVG/1.1/DTD/svg11.dtd">
<svg version="1.1" id="Layer_1" xmlns="http://www.w3.org/2000/svg" xmlns:xlink="http://www.w3.org/1999/xlink" x="0px" y="0px"
	 width="52.445px" height="50px" viewBox="0 0 52.445 50" enable-background="new 0 0 52.445 50" xml:space="preserve">
<g>
	<path d="M22.515,5.438c-1.179,2.209-1.945,4.412-2.29,6.532c-1.711-0.003-2.611,0.114-2.611,0.114
		c-0.309,0.014-7.398,0.416-12.832,6.869c-4.994,5.933-4.842,11.886-4.756,13.018l0.237,3.293c0,0,5.188-4.712,11.139-4.957
		c6.852,0.002,12.423,4.993,13.762,11.49C25.756,44.73,25.368,50,25.368,50s3.235-2.063,4.795-5.434
		c1.351-2.9,1.74-4.125,2.081-6.185c1.955,0.209,2.591-0.006,2.591-0.006c0.288-0.019,7.398-0.416,12.829-6.883
		c4.973-5.902,4.832-11.863,4.762-12.994l-0.234-3.283l-2.609,2.008c-2.479,1.903-5.434,2.923-8.547,2.92
		c-7.203,0.001-12.951-5.507-13.896-12.507C26.785,4.967,27.175,0,27.175,0S23.948,2.758,22.515,5.438"/>
	<g>
		<g>
			<g>
				<defs>
					<path id="SVGID_1_" d="M6.13,20.092c-4.592,5.454-4.405,10.883-4.347,11.753c2.654-2.063,5.997-3.297,9.621-3.297
						c8.688-0.003,15.739,7.052,15.74,15.75c0.002,0.708-0.06,1.408-0.145,2.11l0.005-0.001c2.559-3.739,5.565-10.089,2.139-16.259
						c-2.712-4.903-5.264-3.229-8.956-8.133c-2.901-3.817-2.502-8.173-2.502-8.173s-0.979,0.044-2.479,0.445
						C12.84,14.923,9.189,16.451,6.13,20.092 M23.298,20.32c2.71,4.899,5.25,3.223,8.953,8.124c2.894,3.82,2.496,8.171,2.496,8.171
						s6.566-0.302,11.575-6.255c4.588-5.447,4.403-10.891,4.345-11.737c-2.678,2.051-6.009,3.291-9.639,3.287
						C32.359,21.912,25.3,14.86,25.301,6.171c0.001-0.72,0.054-1.433,0.146-2.126C22.879,7.786,19.875,14.134,23.298,20.32"/>
				</defs>
				<clipPath id="SVGID_2_">
					<use xlink:href="#SVGID_1_"  overflow="visible"/>
				</clipPath>
				
					<linearGradient id="SVGID_3_" gradientUnits="userSpaceOnUse" x1="-1812.6443" y1="662.6191" x2="-1806.8098" y2="662.6191" gradientTransform="matrix(10.2168 0 0 -10.2168 18515.8438 6795.0767)">
					<stop  offset="0" style="stop-color:#A72029"/>
					<stop  offset="0.2254" style="stop-color:#C34F25"/>
					<stop  offset="0.5" style="stop-color:#E88D1F"/>
					<stop  offset="0.7746" style="stop-color:#C34F25"/>
					<stop  offset="1" style="stop-color:#A72029"/>
				</linearGradient>
				<rect x="-3.582" y="-1.283" clip-path="url(#SVGID_2_)" fill="url(#SVGID_3_)" width="59.609" height="53.021"/>
			</g>
		</g>
	</g>
</g>
</svg>
