<?xml version="1.0" encoding="utf-8"?>
<!-- Generator: Adobe Illustrator 16.0.3, SVG Export Plug-In . SVG Version: 6.00 Build 0)  -->
<!DOCTYPE svg PUBLIC "-//W3C//DTD SVG 1.1//EN" "http://www.w3.org/Graphics/SVG/1.1/DTD/svg11.dtd">
<svg version="1.1" id="Layer_1" xmlns="http://www.w3.org/2000/svg" xmlns:xlink="http://www.w3.org/1999/xlink" x="0px" y="0px"
	 width="51.909px" height="50px" viewBox="0 0 51.909 50" enable-background="new 0 0 51.909 50" xml:space="preserve">
<g>
	<path fill="#FFFFFF" d="M22.515,5.438c-1.178,2.209-1.945,4.412-2.29,6.532c-1.711-0.003-2.611,0.114-2.611,0.114
		c-0.309,0.014-7.398,0.416-12.832,6.869c-4.994,5.933-4.841,11.886-4.756,13.018l0.237,3.292c0,0,5.188-4.711,11.139-4.957
		c6.852,0.003,12.423,4.994,13.762,11.491C25.756,44.731,25.368,50,25.368,50s3.235-2.062,4.795-5.434
		c1.35-2.9,1.74-4.125,2.081-6.184c1.955,0.209,2.591-0.006,2.591-0.006c0.288-0.018,7.398-0.416,12.829-6.883
		c4.972-5.902,4.832-11.863,4.762-12.994l-0.235-3.283l-2.61,2.008c-2.479,1.903-5.433,2.923-8.547,2.92
		c-7.202,0.001-12.951-5.507-13.895-12.507C26.785,4.967,27.175,0,27.175,0S23.948,2.758,22.515,5.438"/>
	<path d="M6.13,20.092c-4.592,5.454-4.406,10.882-4.347,11.753c2.654-2.064,5.997-3.297,9.621-3.297
		c8.688-0.003,15.739,7.051,15.74,15.75c0.002,0.708-0.059,1.408-0.144,2.11l0.005-0.001c2.558-3.739,5.565-10.088,2.138-16.258
		c-2.712-4.904-5.263-3.229-8.956-8.134c-2.901-3.817-2.502-8.173-2.502-8.173s-0.979,0.044-2.479,0.445
		C12.84,14.923,9.189,16.451,6.13,20.092 M23.298,20.32c2.71,4.899,5.25,3.223,8.953,8.124c2.893,3.82,2.496,8.17,2.496,8.17
		s6.566-0.302,11.574-6.254c4.589-5.448,4.404-10.891,4.346-11.738c-2.678,2.051-6.009,3.291-9.639,3.287
		C32.359,21.912,25.3,14.86,25.301,6.171c0.001-0.72,0.053-1.433,0.145-2.126C22.879,7.786,19.875,14.134,23.298,20.32"/>
</g>
</svg>
