<?xml version="1.0" encoding="utf-8"?>
<!-- Generator: Adobe Illustrator 16.0.3, SVG Export Plug-In . SVG Version: 6.00 Build 0)  -->
<!DOCTYPE svg PUBLIC "-//W3C//DTD SVG 1.1//EN" "http://www.w3.org/Graphics/SVG/1.1/DTD/svg11.dtd">
<svg version="1.1" id="Layer_1" xmlns="http://www.w3.org/2000/svg" xmlns:xlink="http://www.w3.org/1999/xlink" x="0px" y="0px"
	 width="53.07px" height="50px" viewBox="0 0 53.07 50" enable-background="new 0 0 53.07 50" xml:space="preserve">
<g id="layer1_1_" transform="translate(765.5981,-1198.7241)">
	
		<path id="path2984_1_" fill="#201600" d="
		M-756.042,1198.724l-0.249,3.627l-0.003,0.053l-0.003,0.021c-0.331,4.107-1.02,7.574-2.004,10.035l-2.668-3.767v-0.002
		l-0.057-0.078l-2.625-3.7l-0.844,4.455l-0.016,0.088l-0.003,0.008c-2.823,14.624,0.09,25.056,6.086,31.461
		c5.088,5.435,12.224,7.841,19.351,7.796c0.009,0,0.018,0,0.026,0c7.128,0.045,14.264-2.36,19.352-7.796
		c5.996-6.405,8.908-16.837,6.084-31.461v-0.008l-0.016-0.088l-0.844-4.455l-2.625,3.7l-0.057,0.078v0.002l-2.668,3.767
		c-0.984-2.461-1.674-5.928-2.004-10.035l-0.004-0.021l-0.002-0.053l-0.25-3.627l-2.863,2.242l-0.029,0.024l-0.029,0.021v0.003
		c-3.876,2.921-5.679,6.106-6.108,9.17c-0.43,3.069,0.386,5.809,0.973,8.136c0.587,2.327,0.913,4.163,0.399,5.645
		c-0.376,1.082-1.241,2.25-3.276,3.496v-19.722l3.699-5.996l0.008-0.011l0.006-0.011l0.037-0.064l1.755-2.92h-3.407h-0.003h-16.28
		h-0.002h-3.408l1.752,2.92l0.04,0.064l0.006,0.011l0.005,0.011l3.703,6.001v19.717c-2.036-1.246-2.901-2.415-3.276-3.496
		c-0.515-1.481-0.188-3.318,0.398-5.645c0.587-2.327,1.402-5.066,0.973-8.136c-0.429-3.064-2.231-6.249-6.107-9.17v-0.003
		l-0.029-0.021l-0.03-0.024L-756.042,1198.724L-756.042,1198.724z"/>
	<linearGradient id="path8-1-7_4_" gradientUnits="userSpaceOnUse" x1="-756.9097" y1="1239.7368" x2="-721.2143" y2="1204.0415">
		<stop  offset="0" style="stop-color:#626E77"/>
		<stop  offset="0.4" style="stop-color:#A0B6C2"/>
		<stop  offset="0.5" style="stop-color:#B7D1E1"/>
		<stop  offset="0.6" style="stop-color:#A0B6C2"/>
		<stop  offset="1" style="stop-color:#626E77"/>
	</linearGradient>
	<path id="path8-1-7_1_" fill="url(#path8-1-7_4_)" d="M-747.205,1200.666l0.039,0.064
		l3.988,6.463v23.42c-4.328-1.886-6.293-3.895-7.029-6.017c-0.739-2.131-0.243-4.386,0.353-6.749s1.291-4.834,0.933-7.396
		c-0.358-2.562-1.776-5.209-5.387-7.921l-0.059-0.046l-0.005,0.074c-0.476,5.912-1.554,10.728-3.719,13.539l-4.451-6.289
		l-0.057-0.08l-0.019,0.095c-2.747,14.225,0.096,23.909,5.598,29.786c4.673,4.992,11.26,7.234,17.956,7.186
		c6.697,0.049,13.285-2.193,17.959-7.186c5.502-5.876,8.344-15.561,5.596-29.786l-0.018-0.095l-0.057,0.08l-4.451,6.289
		c-2.166-2.811-3.242-7.626-3.719-13.539l-0.004-0.074l-0.061,0.046c-3.609,2.712-5.027,5.359-5.385,7.921
		c-0.359,2.562,0.337,5.033,0.933,7.396s1.092,4.617,0.352,6.749c-0.735,2.122-2.7,4.13-7.028,6.017v-23.42l3.988-6.463l0.039-0.064
		h-0.003h-16.28H-747.205L-747.205,1200.666z"/>
</g>
</svg>
