<?xml version="1.0" encoding="utf-8"?>
<!-- Generator: Adobe Illustrator 16.0.3, SVG Export Plug-In . SVG Version: 6.00 Build 0)  -->
<!DOCTYPE svg PUBLIC "-//W3C//DTD SVG 1.1//EN" "http://www.w3.org/Graphics/SVG/1.1/DTD/svg11.dtd">
<svg version="1.1" id="Layer_1" xmlns="http://www.w3.org/2000/svg" xmlns:xlink="http://www.w3.org/1999/xlink" x="0px" y="0px"
	 width="53.07px" height="50px" viewBox="0 0 53.07 50" enable-background="new 0 0 53.07 50" xml:space="preserve">
<g id="layer1_2_" transform="translate(765.5981,-1198.7241)">
	
		<path id="path2984_2_" fill="#201600" d="
		M-756.042,1198.724l-0.25,3.627l-0.002,0.053l-0.004,0.021c-0.33,4.107-1.02,7.574-2.004,10.035l-2.668-3.767v-0.002l-0.057-0.078
		l-2.625-3.7l-0.844,4.455l-0.016,0.088l-0.002,0.008c-2.824,14.624,0.09,25.056,6.086,31.461c5.088,5.435,12.223,7.841,19.35,7.796
		c0.01,0,0.018,0,0.027,0c7.127,0.045,14.264-2.36,19.352-7.796c5.996-6.405,8.908-16.837,6.084-31.461v-0.008l-0.016-0.088
		l-0.844-4.455l-2.625,3.7l-0.057,0.078v0.002l-2.668,3.767c-0.984-2.461-1.674-5.928-2.004-10.035l-0.004-0.021l-0.002-0.053
		l-0.25-3.627l-2.863,2.242l-0.029,0.024l-0.029,0.021v0.003c-3.877,2.921-5.68,6.106-6.107,9.17
		c-0.43,3.069,0.385,5.809,0.973,8.136c0.586,2.327,0.912,4.163,0.398,5.645c-0.375,1.082-1.24,2.25-3.275,3.496v-19.722
		l3.699-5.996l0.008-0.011l0.006-0.011l0.037-0.064l1.754-2.92h-3.406h-0.004h-16.279h-0.002h-3.408l1.752,2.92l0.039,0.064
		l0.006,0.011l0.006,0.011l3.703,6.001v19.717c-2.037-1.246-2.902-2.415-3.277-3.496c-0.514-1.481-0.188-3.318,0.398-5.645
		c0.588-2.327,1.402-5.066,0.973-8.136c-0.428-3.064-2.23-6.249-6.107-9.17v-0.003l-0.029-0.021l-0.029-0.024L-756.042,1198.724
		L-756.042,1198.724z"/>
	<linearGradient id="path8-1-7_4_" gradientUnits="userSpaceOnUse" x1="-756.9097" y1="1239.7368" x2="-721.2144" y2="1204.0415">
		<stop  offset="0" style="stop-color:#8D742F"/>
		<stop  offset="0.4" style="stop-color:#B39A54"/>
		<stop  offset="0.5" style="stop-color:#D7BD74"/>
		<stop  offset="0.6" style="stop-color:#B39A54"/>
		<stop  offset="1" style="stop-color:#8D742F"/>
	</linearGradient>
	<path id="path8-1-7_2_" fill="url(#path8-1-7_4_)" d="M-747.206,1200.666l0.039,0.064
		l3.988,6.463v23.42c-4.328-1.886-6.293-3.895-7.029-6.017c-0.738-2.131-0.242-4.386,0.354-6.749s1.291-4.834,0.932-7.396
		c-0.357-2.562-1.775-5.209-5.387-7.921l-0.059-0.046l-0.004,0.074c-0.477,5.912-1.555,10.728-3.719,13.539l-4.451-6.289
		l-0.057-0.08l-0.02,0.095c-2.746,14.225,0.096,23.909,5.598,29.786c4.674,4.992,11.26,7.234,17.957,7.186
		c6.697,0.049,13.285-2.193,17.959-7.186c5.502-5.876,8.344-15.561,5.596-29.786l-0.018-0.095l-0.057,0.08l-4.451,6.289
		c-2.166-2.811-3.242-7.626-3.719-13.539l-0.004-0.074l-0.061,0.046c-3.609,2.712-5.027,5.359-5.385,7.921
		c-0.359,2.562,0.336,5.033,0.932,7.396s1.092,4.617,0.352,6.749c-0.734,2.122-2.699,4.13-7.027,6.017v-23.42l3.988-6.463
		l0.039-0.064h-0.004h-16.279H-747.206L-747.206,1200.666z"/>
</g>
</svg>
