<?xml version="1.0" encoding="utf-8"?>
<!-- Generator: Adobe Illustrator 16.0.3, SVG Export Plug-In . SVG Version: 6.00 Build 0)  -->
<!DOCTYPE svg PUBLIC "-//W3C//DTD SVG 1.1//EN" "http://www.w3.org/Graphics/SVG/1.1/DTD/svg11.dtd">
<svg version="1.1" id="Layer_1" xmlns="http://www.w3.org/2000/svg" xmlns:xlink="http://www.w3.org/1999/xlink" x="0px" y="0px"
	 width="42.285px" height="50px" viewBox="0 0 42.285 50" enable-background="new 0 0 42.285 50" xml:space="preserve">
<g>
	<path d="M42.279,10.758c-0.062-0.847-0.454-1.636-1.099-2.194c-0.574-0.493-1.325-0.771-2.095-0.771
		c-0.703-0.003-1.383,0.225-1.948,0.617l-0.679,0.626l-2.731,3.084l-3.372-1.822c-1.291-0.688-3.266-1.715-5.697-2.68
		c-0.407-0.542-1.292-2.297-2.016-3.973L21.093,0l-1.509,3.658c-0.71,1.665-1.571,3.416-1.993,3.958
		c-2.422,0.963-4.406,1.985-5.68,2.668l-3.35,1.839L5.157,8.405C4.581,8.01,3.898,7.788,3.208,7.793
		c-0.78,0.002-1.531,0.271-2.106,0.771c-0.642,0.562-1.04,1.344-1.095,2.191c-0.056,0.896,0.257,1.787,0.864,2.47
		c0,0,1.588,1.767,2.62,2.92L1.84,17.947l1.344,4.86c1.029,3.513,1.808,5.997,2.314,7.429c0.52,1.399,1.281,2.845,2.331,4.375
		c-0.352,0.218-1.516,0.91-1.516,0.91l0.152,1.085c0.094,0.753,0.348,2.911,0.256,3.94c-0.174,2.165-1.413,4.148-1.419,4.168
		l-3.293,5.26l5.473-2.904c0.169-0.088,3.02-1.614,6.861-4.426c2.969,3.297,5.504,5.783,5.591,5.895l1.165,1.13l1.176-1.123
		c0.108-0.106,2.681-2.598,5.675-5.903c3.839,2.813,6.682,4.338,6.853,4.425L40.339,50l-3.359-5.285
		c-0.003-0.02-1.231-2.006-1.409-4.177c-0.084-0.921,0.113-2.896,0.251-3.934l0.151-1.079l-0.938-0.565
		c-0.009,0.002-0.217-0.127-0.555-0.331c0.977-1.479,1.718-2.915,2.256-4.394c0.482-1.304,2.647-8.538,2.647-8.538l1.063-3.754
		l-1.642-1.797c1.015-1.153,2.612-2.927,2.612-2.927C42.027,12.537,42.329,11.646,42.279,10.758z"/>
	<path fill="#4C656F" d="M15.91,41.52c1.523-1.178,3.165-2.521,4.84-4.062l0.396-0.375l0.417,0.38v-0.001
		c1.663,1.538,3.298,2.881,4.829,4.056c-2.471,2.711-4.652,4.87-5.275,5.48C20.501,46.385,18.355,44.226,15.91,41.52z M5.085,22.441
		c0.834,2.884,1.666,5.602,2.212,7.138c0.445,1.181,1.11,2.482,2.12,3.979c1.301-0.863,3.059-2.079,4.906-3.5
		c-2.688-2.976-6.758-7.863-7.595-8.871L5.085,22.441z M34.946,29.57c0.556-1.529,1.393-4.266,2.23-7.149l-1.607-1.235
		c-0.84,1.008-4.923,5.896-7.604,8.871c1.857,1.425,3.622,2.651,4.925,3.501C33.873,32.076,34.514,30.756,34.946,29.57z
		 M21.144,23.992c2.092-2.079,6.931-7.008,7.953-8.049l-2.984-2.445l2.943-1.726c-1.488-0.787-3.259-1.656-5.342-2.48
		c-0.334-0.15-0.576-0.507-0.887-0.981c-0.634-1.008-1.349-2.561-1.709-3.374c-0.19,0.433-1.397,2.901-1.691,3.375
		c-0.308,0.474-0.544,0.829-0.877,0.979c-2.076,0.818-3.847,1.689-5.333,2.469l2.964,1.735l-2.998,2.453
		C14.208,16.99,19.056,21.913,21.144,23.992z"/>
	<g>
		<g>
			<g>
				<defs>
					<path id="SVGID_69_" d="M22.213,35.73l0.51,0.467c6.58,6.081,12.868,9.407,12.868,9.407s-1.457-2.296-1.678-4.928
						c-0.127-1.44,0.266-4.297,0.266-4.297s-3.623-2.141-7.559-5.219C25.188,32.711,23.689,34.272,22.213,35.73 M37.771,10.044
						l-0.003,0.031l-3.677,4.137l-3.02-1.65l-1.996,1.169l2.53,2.079c0,0-9.598,9.792-11.791,11.837
						c-5.114,4.828-11.707,8.739-11.707,8.739s0.404,2.843,0.279,4.289c-0.225,2.642-1.684,4.927-1.684,4.927
						s6.296-3.323,12.875-9.396c5.311-4.874,11.218-11.891,13.834-15.081l1.888-2.283l2.601,1.988l0.699-2.452l-2.029-2.225
						c1.585-1.792,3.598-4.026,3.606-4.027c0.626-0.707,0.593-1.725-0.072-2.298c-0.298-0.25-0.65-0.373-1.023-0.376l-0.268,0.019
						C38.423,9.54,38.057,9.731,37.771,10.044 M2.187,9.828c-0.668,0.576-0.704,1.596-0.084,2.295
						c0.019-0.004,2.045,2.252,3.617,4.031l-2.035,2.229l0.705,2.45l2.592-1.999l1.905,2.288c1.5,1.819,4.046,4.869,6.949,8.063
						c1.016-0.813,3.812-3.363,4.283-3.835c-2.132-2.091-9.431-9.538-9.431-9.538l-0.008,0.001l2.548-2.077l-2.011-1.174
						L8.183,14.21l-3.656-4.143l-0.008,0.001L4.516,10.05C4.164,9.664,3.67,9.459,3.202,9.453l-0.27,0.018
						C2.667,9.518,2.407,9.641,2.187,9.828"/>
				</defs>
				<clipPath id="SVGID_2_">
					<use xlink:href="#SVGID_69_"  overflow="visible"/>
				</clipPath>
				
					<linearGradient id="SVGID_3_" gradientUnits="userSpaceOnUse" x1="-1061.8066" y1="-83.5972" x2="-1058.8872" y2="-83.5972" gradientTransform="matrix(11.6547 12.0684 12.0684 -11.6547 13390.9551 11849.7266)">
					<stop  offset="0" style="stop-color:#4B646D"/>
					<stop  offset="0.0975" style="stop-color:#67828C"/>
					<stop  offset="0.2233" style="stop-color:#89A5B0"/>
					<stop  offset="0.3368" style="stop-color:#A7C3CD"/>
					<stop  offset="0.4329" style="stop-color:#BAD7E1"/>
					<stop  offset="0.5" style="stop-color:#C2DFE8"/>
					<stop  offset="1" style="stop-color:#4B646D"/>
				</linearGradient>
				<polygon clip-path="url(#SVGID_2_)" fill="url(#SVGID_3_)" points="24.061,-12.925 63.228,27.632 22.979,66.5 -16.187,25.943 
									"/>
			</g>
		</g>
	</g>
</g>
</svg>
