<?xml version="1.0" encoding="utf-8"?>
<!-- Generator: Adobe Illustrator 16.0.3, SVG Export Plug-In . SVG Version: 6.00 Build 0)  -->
<!DOCTYPE svg PUBLIC "-//W3C//DTD SVG 1.1//EN" "http://www.w3.org/Graphics/SVG/1.1/DTD/svg11.dtd">
<svg version="1.1" id="Layer_1" xmlns="http://www.w3.org/2000/svg" xmlns:xlink="http://www.w3.org/1999/xlink" x="0px" y="0px"
	 width="42.284px" height="50px" viewBox="0 0 42.284 50" enable-background="new 0 0 42.284 50" xml:space="preserve">
<g>
	<path d="M42.279,10.758c-0.062-0.847-0.454-1.636-1.099-2.194c-0.574-0.493-1.325-0.771-2.096-0.771
		c-0.702-0.003-1.383,0.225-1.947,0.617l-0.68,0.626l-2.73,3.084l-3.372-1.822c-1.291-0.688-3.266-1.715-5.697-2.68
		c-0.407-0.542-1.292-2.297-2.017-3.973L21.093,0l-1.509,3.658c-0.711,1.665-1.571,3.416-1.992,3.958
		c-2.423,0.963-4.406,1.985-5.68,2.668l-3.351,1.839L5.157,8.405C4.58,8.01,3.898,7.788,3.207,7.793
		C2.428,7.795,1.676,8.063,1.102,8.564c-0.642,0.562-1.04,1.344-1.096,2.191c-0.056,0.896,0.257,1.787,0.864,2.47
		c0,0,1.589,1.767,2.621,2.92L1.84,17.947l1.345,4.86c1.028,3.513,1.808,5.997,2.313,7.429c0.52,1.399,1.281,2.845,2.331,4.375
		c-0.352,0.218-1.516,0.91-1.516,0.91l0.151,1.085c0.095,0.753,0.349,2.911,0.257,3.94c-0.174,2.165-1.413,4.148-1.419,4.168
		l-3.293,5.26l5.473-2.904c0.169-0.088,3.02-1.614,6.86-4.426c2.97,3.297,5.504,5.783,5.592,5.895l1.164,1.13l1.177-1.123
		c0.107-0.106,2.681-2.598,5.675-5.903c3.839,2.813,6.682,4.338,6.853,4.425L40.339,50l-3.358-5.285
		c-0.004-0.02-1.231-2.006-1.409-4.177c-0.084-0.921,0.113-2.896,0.252-3.934l0.15-1.079l-0.938-0.565
		c-0.01,0.002-0.218-0.127-0.556-0.331c0.978-1.479,1.718-2.915,2.257-4.394c0.481-1.304,2.646-8.538,2.646-8.538l1.063-3.754
		l-1.642-1.797c1.015-1.153,2.612-2.927,2.612-2.927C42.027,12.537,42.329,11.646,42.279,10.758z"/>
	<path fill="#7D6D39" d="M15.91,41.52c1.523-1.178,3.165-2.521,4.84-4.062l0.396-0.375l0.417,0.38v-0.001
		c1.663,1.538,3.299,2.881,4.828,4.056c-2.471,2.711-4.652,4.87-5.275,5.48C20.502,46.385,18.355,44.226,15.91,41.52z M5.085,22.441
		c0.835,2.884,1.666,5.602,2.213,7.138c0.445,1.181,1.109,2.482,2.119,3.979c1.302-0.863,3.06-2.079,4.906-3.5
		c-2.688-2.976-6.758-7.863-7.595-8.871L5.085,22.441z M34.946,29.57c0.556-1.529,1.393-4.266,2.23-7.149l-1.607-1.235
		c-0.84,1.008-4.923,5.896-7.604,8.871c1.857,1.425,3.621,2.651,4.925,3.501C33.873,32.076,34.515,30.756,34.946,29.57z
		 M21.144,23.992c2.093-2.079,6.932-7.008,7.953-8.049l-2.984-2.445l2.943-1.726c-1.488-0.787-3.259-1.656-5.342-2.48
		c-0.334-0.15-0.576-0.507-0.887-0.981c-0.635-1.008-1.349-2.561-1.71-3.374c-0.19,0.433-1.396,2.901-1.691,3.375
		c-0.307,0.474-0.544,0.829-0.877,0.979c-2.075,0.818-3.846,1.689-5.332,2.469l2.964,1.735l-2.997,2.453
		C14.208,16.99,19.056,21.913,21.144,23.992z"/>
	<g>
		<g>
			<g>
				<defs>
					<path id="SVGID_72_" d="M22.213,35.73l0.51,0.467c6.581,6.081,12.868,9.407,12.868,9.407s-1.456-2.296-1.678-4.928
						c-0.127-1.44,0.267-4.297,0.267-4.297s-3.623-2.141-7.56-5.219C25.188,32.711,23.689,34.272,22.213,35.73 M37.771,10.044
						l-0.003,0.031l-3.678,4.137l-3.021-1.65l-1.995,1.169l2.53,2.079c0,0-9.599,9.792-11.791,11.837
						c-5.115,4.828-11.707,8.739-11.707,8.739s0.404,2.843,0.278,4.289c-0.225,2.642-1.684,4.927-1.684,4.927
						s6.296-3.323,12.875-9.396c5.312-4.874,11.218-11.891,13.834-15.081l1.888-2.283l2.601,1.988l0.698-2.452l-2.028-2.225
						c1.585-1.792,3.598-4.026,3.606-4.027c0.626-0.707,0.593-1.725-0.072-2.298c-0.298-0.25-0.65-0.373-1.023-0.376l-0.268,0.019
						C38.423,9.54,38.058,9.731,37.771,10.044 M2.187,9.828c-0.669,0.576-0.704,1.596-0.084,2.295
						c0.019-0.004,2.045,2.252,3.616,4.031l-2.034,2.229l0.705,2.45l2.592-1.999l1.904,2.288c1.499,1.819,4.046,4.869,6.949,8.063
						c1.016-0.813,3.812-3.363,4.282-3.835c-2.132-2.091-9.43-9.538-9.43-9.538l-0.009,0.001l2.548-2.077l-2.012-1.174L8.183,14.21
						l-3.655-4.143L4.52,10.068L4.516,10.05C4.164,9.664,3.67,9.459,3.202,9.453L2.932,9.471C2.667,9.518,2.407,9.641,2.187,9.828"
						/>
				</defs>
				<clipPath id="SVGID_2_">
					<use xlink:href="#SVGID_72_"  overflow="visible"/>
				</clipPath>
				
					<linearGradient id="SVGID_3_" gradientUnits="userSpaceOnUse" x1="-903.8335" y1="-90.6719" x2="-900.9162" y2="-90.6719" gradientTransform="matrix(11.6547 12.0684 12.0684 -11.6547 11632.918 9858.4268)">
					<stop  offset="0" style="stop-color:#7D6C39"/>
					<stop  offset="0.0603" style="stop-color:#8E7C46"/>
					<stop  offset="0.1905" style="stop-color:#AF9B61"/>
					<stop  offset="0.3114" style="stop-color:#CBB578"/>
					<stop  offset="0.4183" style="stop-color:#DDC687"/>
					<stop  offset="0.5" style="stop-color:#E4CC8C"/>
					<stop  offset="0.8671" style="stop-color:#7D6D39"/>
					<stop  offset="0.869" style="stop-color:#7D6C39"/>
					<stop  offset="1" style="stop-color:#7D6C39"/>
				</linearGradient>
				<polygon clip-path="url(#SVGID_2_)" fill="url(#SVGID_3_)" points="24.061,-12.925 63.228,27.632 22.979,66.5 -16.187,25.943 
									"/>
			</g>
		</g>
	</g>
</g>
</svg>
