<?xml version="1.0" encoding="utf-8"?>
<!-- Generator: Adobe Illustrator 16.0.3, SVG Export Plug-In . SVG Version: 6.00 Build 0)  -->
<!DOCTYPE svg PUBLIC "-//W3C//DTD SVG 1.1//EN" "http://www.w3.org/Graphics/SVG/1.1/DTD/svg11.dtd">
<svg version="1.1" id="Layer_1" xmlns="http://www.w3.org/2000/svg" xmlns:xlink="http://www.w3.org/1999/xlink" x="0px" y="0px"
	 width="93.533px" height="50px" viewBox="0 0 93.533 50" enable-background="new 0 0 93.533 50" xml:space="preserve">
<g>
	<defs>
		<rect id="SVGID_78_" x="-2.5" y="64" width="300" height="160"/>
	</defs>
	<clipPath id="SVGID_2_">
		<use xlink:href="#SVGID_78_"  overflow="visible"/>
	</clipPath>
	<g clip-path="url(#SVGID_2_)">
		<defs>
			<path id="SVGID_80_" d="M-172.745,64l-130.377,0.018c0,0-19.36,39.578-19.378,79.969c0.021,40.411,19.392,79.979,19.392,79.979
				L-42.444,224c0,0,19.959-39.756,19.944-79.997c-0.001-40.28-19.909-79.985-19.909-79.985L-172.745,64"/>
		</defs>
		<clipPath id="SVGID_3_">
			<use xlink:href="#SVGID_80_"  overflow="visible"/>
		</clipPath>
		<g clip-path="url(#SVGID_3_)">
			<defs>
				<polygon id="SVGID_82_" points="-420.289,82.552 -101.961,-100.943 75.275,205.519 -243.051,389.014 				"/>
			</defs>
			<clipPath id="SVGID_5_">
				<use xlink:href="#SVGID_82_"  overflow="visible"/>
			</clipPath>
			
				<linearGradient id="SVGID_6_" gradientUnits="userSpaceOnUse" x1="234.7251" y1="-142.3516" x2="235.7251" y2="-142.3516" gradientTransform="matrix(264.9565 -152.9814 152.9814 264.9565 -40720 73845.9844)">
				<stop  offset="0" style="stop-color:#A22B2A"/>
				<stop  offset="0.1783" style="stop-color:#B1402A"/>
				<stop  offset="0.5463" style="stop-color:#D9772B"/>
				<stop  offset="0.6374" style="stop-color:#E3862B"/>
				<stop  offset="0.7067" style="stop-color:#DA7A2B"/>
				<stop  offset="0.8327" style="stop-color:#C35A2B"/>
				<stop  offset="0.9835" style="stop-color:#A22B2A"/>
				<stop  offset="1" style="stop-color:#A22B2A"/>
			</linearGradient>
			<polygon clip-path="url(#SVGID_5_)" fill="url(#SVGID_6_)" points="-296.387,603.606 287.439,266.515 -48.626,-315.535 
				-632.453,21.557 			"/>
		</g>
	</g>
</g>
<g>
	<defs>
		<rect id="SVGID_85_" width="93.75" height="50"/>
	</defs>
	<clipPath id="SVGID_8_">
		<use xlink:href="#SVGID_85_"  overflow="visible"/>
	</clipPath>
	<path clip-path="url(#SVGID_8_)" fill="#FFFFFF" d="M87.515,49.997L46.788,50H6.052c0,0-6.05-12.371-6.052-24.993
		S6.049,0.003,6.049,0.003l40.737-0.001L87.512,0c0,0,6.239,12.424,6.238,25.002C93.75,37.576,87.515,49.997,87.515,49.997"/>
	<path clip-path="url(#SVGID_8_)" d="M93.533,29.062l-3.098,1.701c0.209-1.811,0.315-3.717,0.313-5.771
		c0-2.015-0.108-3.882-0.307-5.669l-2.834,0.836c0.151,1.539,0.24,3.133,0.243,4.832c0,2.727-0.26,5.172-0.649,7.54l-4.275,2.348
		l4.179-1.721c-0.659,3.65-1.731,7.134-3.334,10.931l-9.946,0.001l1.411,2.897h10.442c1.259-2.912,2.217-5.562,3.018-8.193
		l-2.743-0.632l3.562-2.181c0.318-1.341,0.528-2.719,0.728-4.119l3.126-1.288C93.427,30.07,93.482,29.571,93.533,29.062"/>
	<polygon clip-path="url(#SVGID_8_)" points="50.986,8.484 54.532,5.902 61.897,5.903 58.118,3.295 62.641,0.002 60.291,0.001 
		56.979,3.017 24.732,3.02 19.676,5.901 53.821,5.902 	"/>
	<polygon clip-path="url(#SVGID_8_)" points="69.505,37.329 66.6,44.088 44.467,44.09 49.427,46.982 65.353,46.983 64.052,49.999 
		66.749,49.998 67.401,46.983 68.896,46.983 71.152,44.088 68.038,44.087 	"/>
	<polygon clip-path="url(#SVGID_8_)" points="24.5,0.004 13.539,0.004 21.013,2.159 	"/>
	<polygon clip-path="url(#SVGID_8_)" points="19.306,41.518 21.717,44.087 14.708,44.087 14.077,46.984 24.432,46.983 27.25,49.999 
		30.028,49.998 26.215,46.985 37.454,46.981 44.465,44.088 22.553,44.091 	"/>
	<path clip-path="url(#SVGID_8_)" d="M42.267,38.532l2.02,2.198c3.996-3.193,11.056-2.063,15.251-0.7l0.858-2.027
		c-0.377-0.479-0.752-0.856-1.245-1.227l-1.184-0.809c-0.806-0.53-1.56-1.023-2.049-1.551c-0.849-0.932-0.931-1.776-1.208-2.958
		c-0.236-0.977-0.821-2.563-1.539-4.321c-0.105-0.253-0.21-0.502-0.319-0.756l-10.912-7.54l8.161,1.508
		c-0.4-0.814-0.773-1.528-1.026-1.976c-1.601-2.777-2.401-6.057-1.593-8.079l0.115-0.512l-1.946-1.12
		c-2.113,0.938-6.557,0.732-8.747-0.176l-1.626,2.539c0.826,0.415,4.76,2.038,4.213,3.094c-1.22,2.362-2.083,3.189-2.443,3.515
		c-0.643,0.592-0.706,1.411-0.021,2.218l1.106,1.222c0.707,0.73,1.309,0.619,2.019,0.135c0.289-0.137,0.664-0.3,1.044,0.486
		c1.631,3.392,4.066,7.813,5.004,11.348C46.833,35.4,43.698,37.311,42.267,38.532"/>
	<path clip-path="url(#SVGID_8_)" d="M87.207,17.502l2.687-1.36c-0.816-4.362-2.183-8.433-4.215-13.124L67.801,3.016l-5.904,2.886
		L83.77,5.902C85.467,9.93,86.569,13.599,87.207,17.502"/>
	<path clip-path="url(#SVGID_8_)" d="M8.409,39.941c2.672-1.387,5.958-1.509,8.901-1.054l0.001-2.188l-0.672-0.277
		c-0.188-0.109-0.466-0.273-0.81-0.589c-2.016-1.813,1.522-8.596,2.458-10.682c0.453-1.201-0.021-1.76-0.79-2.087l-1.553-0.706
		c-0.69-0.395-1.579-0.397-1.943,0.633c-1.203,2.322-1.894,4.845-2.788,7.293c-0.996,2.671-1.799,4.881-3.714,6.742
		c-1.045-3.773-1.557-7.568-1.558-12.032c-0.002-1.267,0.089-2.437,0.176-3.611l3.489-1.08l-3.456,0.457
		c0.444-5.21,1.694-9.731,3.854-14.856l9.667-0.002l-1.11-2.883L8.098,3.021C6.423,6.896,5.198,10.348,4.36,13.895l2.138,3.683
		l-3.141,1.646c-0.068,0.603-0.056,1.296-0.108,1.92l-3.09,0.406c-0.043,0.573-0.082,1.143-0.105,1.714l3.137-0.97
		c-0.043,0.899-0.148,1.74-0.15,2.705c0.001,8.432,1.75,14.321,5.064,21.982h1.629l2.766-2.893l-2.495-0.002
		C9.408,42.671,8.877,41.291,8.409,39.941"/>
	<path clip-path="url(#SVGID_8_)" d="M29.576,41.311l2.75,1.549c1.1-2.359,3.909-5.094,6.517-5.571
		c-0.338-1.682-0.799-3.265-1.383-4.879c-0.907-2.488-2.572-6.016-0.702-8.44c0.522-0.618,0.822-1.416,0.052-2.203l-1.229-1.368
		c-0.64-0.598-1.47-0.552-2.127,0.066l-0.543,0.433c-2.102-1.517-3.148-3.976-4.55-6.137c-1.033-1.584-2.546-3.165-2.627-5.133
		L15.253,9.333l-0.849,1.104l-0.586,0.789c-0.249,0.345,0.091,1.005,0.725,1.121l0.828,0.155c0.668,0.161,1.327,0.354,1.641,0.563
		c0.73,0.465-0.997,4.609-1.291,5.35c-0.693,1.231-0.225,1.793,0.694,2.248L18,21.416c0.996,0.43,1.684,0.152,2.051-0.811
		l0.358-0.805c0.155-0.28,0.293-0.521,0.425-0.66l0.492-0.173c1.881,1.052,4.386,5.734,6.195,10.626l9.396,1.371l-8.179,2.323
		c0.836,2.911,1.292,5.583,1.047,7.215L29.576,41.311z"/>
	<path clip-path="url(#SVGID_8_)" d="M64.703,8.873L64.6,8.966c-2.11,1.902-5.62,3.699-7.569,4.177l-0.255,0.061l0.001,0.946h3.438
		l0.004,3.897l5.286,8.671l0.002-17.843L64.703,8.873"/>
	<path clip-path="url(#SVGID_8_)" d="M68.942,31.861l-0.273-0.063c-2.213-0.476-3.162-1.828-3.16-4.511l-0.004-0.571l-5.289-2.443
		l-0.002,6.383l-3.436,1.243l-0.002,0.911l12.167,0.001L68.942,31.861"/>
	<path clip-path="url(#SVGID_8_)" d="M69.504,30.614c1.572,1.606,3.867,2.523,6.318,2.523c5.067-0.001,8.334-2.986,8.334-7.613
		c0.001-0.739-0.109-1.503-0.338-2.248l-6.253-0.169c1.809,1.162,2.47,2.699,2.469,3.822c-0.003,2.222-1.369,3.556-3.656,3.556
		c-2.225-0.003-3.724-1.509-3.727-3.751l0-0.24l-0.58-0.203l-2.766,4.121L69.504,30.614"/>
	<path clip-path="url(#SVGID_8_)" d="M82.925,13.33l-0.002-5.764l-0.668,0.003l-1.116,1.636l-9.695-0.002l-1.306,11.859
		l-0.044,0.385l0.389,0.001c2.899-0.003,4.971,0.516,6.436,1.258l5.099-2.577c-1.68-1.812-4.412-3.162-8.605-3.29l0.359-3.507
		L82.925,13.33"/>
</g>
</svg>
