<?xml version="1.0" encoding="utf-8"?>
<!-- Generator: Adobe Illustrator 16.0.3, SVG Export Plug-In . SVG Version: 6.00 Build 0)  -->
<!DOCTYPE svg PUBLIC "-//W3C//DTD SVG 1.1//EN" "http://www.w3.org/Graphics/SVG/1.1/DTD/svg11.dtd">
<svg version="1.1" id="Layer_1" xmlns="http://www.w3.org/2000/svg" xmlns:xlink="http://www.w3.org/1999/xlink" x="0px" y="0px"
	 width="93.748px" height="50px" viewBox="0 0 93.748 50" enable-background="new 0 0 93.748 50" xml:space="preserve">
<g>
	<path id="path3800" fill="#FFFFFF" d="M6.229,0.347C2.267,7.707,0,16.243,0,25.347
		s2.267,17.641,6.229,25H87.52c3.962-7.359,6.229-15.896,6.229-25s-2.267-17.641-6.228-25H6.229z"/>
	
		<linearGradient id="path12_1_" gradientUnits="userSpaceOnUse" x1="-445.3799" y1="538.3145" x2="-431.9304" y2="544.5861" gradientTransform="matrix(6.1867 0 0 -6 2760.7051 3274.0547)">
		<stop  offset="0" style="stop-color:#BD3627"/>
		<stop  offset="1" style="stop-color:#F49620"/>
	</linearGradient>
	<path id="path12" fill="url(#path12_1_)" d="M7.583,1.91C3.754,8.809,1.563,16.812,1.563,25.347
		s2.191,16.538,6.021,23.438h78.581c3.83-6.899,6.021-14.902,6.021-23.438S89.994,8.809,86.165,1.91H7.583z"/>
	<path id="path14" d="M83.741,6.286c2.607,5.764,4.07,12.229,4.07,19.063
		c0,6.957-1.52,13.533-4.216,19.375H10.152C7.456,38.88,5.938,32.304,5.938,25.347c0-6.832,1.463-13.299,4.07-19.063h73.733
		 M85.656,3.316h-1.915H10.008H8.093l-0.79,1.745c-2.876,6.356-4.334,13.183-4.334,20.286c0,7.23,1.511,14.168,4.489,20.619
		l0.796,1.725h1.898h73.443h1.898l0.796-1.725c2.98-6.451,4.49-13.389,4.49-20.619c0-7.104-1.458-13.93-4.334-20.287L85.656,3.316
		L85.656,3.316L85.656,3.316z"/>
	<g>
		<path d="M6.563,38.463c1.957-1.534,3.268-3.605,4.367-6.656c1.021-2.83,1.714-5.56,3-8.164c0.325-0.658,1.114-1.177,1.969-0.766
			c0.603,0.29,1.202,0.622,1.862,0.924c0.694,0.318,0.838,0.92,0.521,1.662c-0.916,2.139-2.053,4.186-2.786,6.385
			c-0.729,2.188-0.834,4.74,1.744,5.418v2.031c-4.81-0.582-7.691,0.107-9.516,1.666L6.563,38.463z"/>
		<path d="M13.698,12.422c2.513,0.313,4.361,0.611,3.463,2.941c-0.489,1.271-1.018,2.46-1.563,3.621
			c-0.31,0.66-0.241,1.393,0.521,1.9c0.511,0.341,1.615,0.896,2.188,1.119c0.768,0.3,1.242-0.012,1.484-0.572
			c0.178-0.412,0.58-1.214,0.781-1.615c0.378-0.752,1.04-0.59,1.51,0.078c2.987,4.255,5.812,10.195,7.578,17.293
			c0.489,1.965,0.469,3.568-0.13,4.557c0.862,0.641,1.828,1.088,2.891,1.354c1.253-2.354,3.429-4.211,6.38-5.65
			c-0.605-2.418-1.382-4.801-2.396-7.135c-1.021-3.287-0.403-5.002,0.625-6.303c0.281-0.355,0.287-0.826,0-1.279
			c-0.55-0.867-1.15-1.557-1.771-2.08c-0.437-0.369-1.01-0.446-1.484,0.025c-0.28,0.279-0.524,0.594-0.859,0.834
			c-3.386-4.01-6.276-8.307-7.344-11.328L15.156,9.792C14.453,10.534,13.906,11.432,13.698,12.422z"/>
		<path d="M39.022,13.506c0.613,0.529,0.626,1.104,0.224,1.742c-0.782,1.244-1.538,2.238-2.397,2.98
			c-0.448,0.387-0.379,1.041-0.104,1.563c0.603,1.141,1.534,1.859,2.474,2.344c0.777-0.777,1.555-1.043,2.005-0.182
			c1.659,3.17,2.899,6.384,4.401,9.348c1.313,2.592,0.973,4.377-0.495,5.574c-1.025,0.836-2.014,1.528-2.813,2.344
			c0.672,0.698,1.382,1.367,2.136,2.004c3.446-2.811,8.671-2.659,15.026-0.625c0.246-0.754,0.577-1.483,0.989-2.188
			c-2.227-1.998-4.55-2.482-5.364-4.426c-0.431-1.028-0.645-3.108-1.17-4.433c-1.721-4.345-3.336-7.599-6.018-13.12
			c-1.203-2.477-0.932-4.885-0.313-6.225c-0.898-0.383-1.595-0.844-2.109-1.373c-1.198,1.191-5.964,1.217-8.444,0
			c-0.576,0.988-1.156,1.755-1.738,2.461C36.864,11.952,38.104,12.713,39.022,13.506z"/>
		<path d="M56.55,33.432v-0.338l3.765-1.285l0.02-16.679l-0.072-0.102l-3.712,0.06v-1.262c0.574-0.136,1.231-0.35,1.972-0.643
			c0.741-0.292,1.494-0.636,2.259-1.031c0.765-0.394,1.511-0.828,2.241-1.301c0.728-0.473,1.379-0.946,1.953-1.419h0.358v18.66
			c0,1.555,0.316,2.715,0.95,3.48c0.633,0.768,1.572,1.274,2.814,1.521v0.338H56.55z"/>
		<path d="M69.137,31.338l3.072-4.208c0.456,1.242,0.668,2.493,1.875,3.708c0.883,0.886,1.723,0.708,2.651,0.708
			c1.454,0,1.825-0.442,2.515-1.125c0.389-0.385,0.834-1.29,0.834-2c0-0.576,0.049-1.143-0.17-1.707
			c-0.22-0.566-0.297-0.855-0.764-1.545c-0.435-0.642-1.201-1.052-1.99-1.479c-0.791-0.426-1.813-0.772-3.064-1.036
			c-1.252-0.265-2.645-0.398-4.18-0.398l1.391-12.514h9.818l1.721-1.766h0.139l0.1,6.027l-9.043-0.042l-0.582,3.5
			c1.606,0.023,2.721,0.237,4.041,0.583c1.323,0.346,2.354,1.096,3.25,1.667c0.896,0.569,1.543,1.352,2.166,2.125
			c0.623,0.771,0.931,1.612,1.209,2.458c0.279,0.848,0.209,1.825,0.209,2.748c0,1.013-0.24,1.427-0.625,2.418
			c-0.365,0.935-0.933,1.606-1.625,2.333c-0.692,0.728-1.548,1.323-2.668,1.74c-1.119,0.416-2.258,0.801-3.666,0.801
			c-1.304,0-2.494-0.336-3.625-0.801C70.994,33.073,69.944,32.162,69.137,31.338z"/>
	</g>
</g>
</svg>
