<?xml version="1.0" encoding="utf-8"?>
<!-- Generator: Adobe Illustrator 16.0.3, SVG Export Plug-In . SVG Version: 6.00 Build 0)  -->
<!DOCTYPE svg PUBLIC "-//W3C//DTD SVG 1.1//EN" "http://www.w3.org/Graphics/SVG/1.1/DTD/svg11.dtd">
<svg version="1.1" id="Layer_1" xmlns="http://www.w3.org/2000/svg" xmlns:xlink="http://www.w3.org/1999/xlink" x="0px" y="0px"
	 width="59.316px" height="50px" viewBox="0 0 59.316 50" enable-background="new 0 0 59.316 50" xml:space="preserve">
<g>
	<path fill="#FFFFFF" d="M7.998,50l-1.021-1.204C2.415,43.419,0,36.788,0,29.662C0,13.308,13.308,0.004,29.654,0
		c16.354,0.004,29.662,13.308,29.662,29.662c0,6.745-2.201,13.09-6.346,18.354l-0.982,1.234l-0.563-1.471
		c-0.609-1.58-1.409-3.111-2.384-4.528l-0.214-0.331l2.064-9.202c-1.942,2.03-4.015,3.706-4.951,4.67l-0.579,0.598l-0.64-0.525
		c-0.595-0.491-1.173-0.934-1.722-1.299l-0.404-0.274v-0.479c0-2.892,0.45-8.551,1.136-12.923
		c-2.239,3.363-5.058,7.347-6.795,10.059l-0.351,0.545l-0.632-0.164c-0.563-0.152-1.15-0.285-1.737-0.393l-1.203-0.213l-0.145-0.571
		c-0.952-3.987-2.263-10.028-3.116-14.755c-0.913,4.704-2.33,10.71-3.306,14.759l-0.137,0.567l-0.571,0.1
		c-0.8,0.145-1.577,0.327-2.308,0.552l-0.648,0.187l-0.357-0.567c-1.653-2.578-4.35-7.187-6.498-11.022
		c0.557,5.073,0.846,11.929,0.793,14.34l-0.008,0.419l-0.32,0.259c-0.54,0.427-0.982,0.819-1.386,1.192l-0.633,0.609l-0.616-0.621
		c-1.082-1.074-3.139-3.386-5.097-5.995l2.11,11.049l-0.183,0.316c-0.854,1.395-1.547,2.86-2.072,4.38L7.998,50z"/>
	<path d="M1.798,29.662C1.79,35.844,3.725,41.609,7.389,46.438c0.419-1.009,0.907-1.984,1.471-2.933L5.135,25l2.49,3.378
		c0.061,0.08,4.601,5.935,6.825,8.49c0.145-0.146,0.313-0.274,0.472-0.411c-0.045-4.145-1.256-17.978-1.271-18.134l-0.541-4.521
		l2.217,3.987c0.061,0.11,5.507,9.864,8.242,14.275c0.419-0.118,0.838-0.214,1.264-0.298c1.569-6.611,4.068-18.757,4.083-18.902
		l0.938-4.905l0.822,4.929c0.03,0.137,2.285,12.355,3.809,18.872l0.054,0.007c0.427,0.076,0.838,0.16,1.241,0.267
		c2.948-4.573,8.677-12.885,8.745-12.987l2.33-3.484l-0.708,4.132c-0.008,0.138-1.6,11.578-1.737,16.256
		c0.26,0.187,0.533,0.388,0.815,0.605c2.133-2.235,6.719-6.536,6.719-6.536l2.361-2.445l-3.55,15.014
		c0.655,0.983,1.234,2.019,1.722,3.086c3.306-4.686,5.051-10.196,5.051-16.001c0-15.371-12.516-27.879-27.872-27.883
		c-1.158,0.004-2.301,0.072-3.42,0.21C12.478,3.687,1.79,15.451,1.798,29.662"/>
</g>
</svg>
