<?xml version="1.0" encoding="utf-8"?>
<!-- Generator: Adobe Illustrator 16.0.3, SVG Export Plug-In . SVG Version: 6.00 Build 0)  -->
<!DOCTYPE svg PUBLIC "-//W3C//DTD SVG 1.1//EN" "http://www.w3.org/Graphics/SVG/1.1/DTD/svg11.dtd">
<svg version="1.1" id="Layer_1" xmlns="http://www.w3.org/2000/svg" xmlns:xlink="http://www.w3.org/1999/xlink" x="0px" y="0px"
	 width="59.315px" height="50px" viewBox="0 0 59.315 50" enable-background="new 0 0 59.315 50" xml:space="preserve">
<g>
	<path d="M7.998,50l-1.021-1.204C2.422,43.411,0.008,36.792,0,29.658C0,13.311,13.3-0.004,29.661,0
		c16.354-0.004,29.654,13.3,29.654,29.658c0.008,6.741-2.193,13.09-6.345,18.354l-0.976,1.234l-0.563-1.463
		c-0.609-1.584-1.409-3.119-2.377-4.536l-0.229-0.331l2.064-9.194c-1.935,2.022-4.007,3.69-4.943,4.658l-0.579,0.605l-0.64-0.537
		c-0.595-0.487-1.181-0.926-1.722-1.299l-0.403-0.263v-0.479c0.007-2.899,0.449-8.559,1.119-12.927
		c-2.231,3.358-5.035,7.339-6.779,10.059l-0.357,0.545l-0.633-0.168c-0.556-0.141-1.135-0.277-1.729-0.381l-1.212-0.225
		l-0.145-0.563c-0.952-3.988-2.263-10.028-3.107-14.755c-0.922,4.695-2.331,10.702-3.307,14.751l-0.137,0.571l-0.587,0.099
		c-0.792,0.149-1.568,0.328-2.3,0.549l-0.647,0.19l-0.358-0.56c-1.653-2.579-4.342-7.198-6.505-11.03
		c0.571,5.073,0.86,11.925,0.808,14.34l-0.016,0.411l-0.327,0.267c-0.525,0.427-0.982,0.822-1.379,1.192l-0.625,0.613l-0.624-0.625
		c-1.082-1.078-3.131-3.394-5.096-5.995l2.109,11.057l-0.183,0.309c-0.846,1.391-1.546,2.86-2.072,4.388L7.998,50z"/>
	
		<linearGradient id="SVGID_2_" gradientUnits="userSpaceOnUse" x1="14.4404" y1="-563.7261" x2="62.7142" y2="-591.5969" gradientTransform="matrix(1 0 0 -1 -8.3599 -548.9453)">
		<stop  offset="0.1" style="stop-color:#826E3E"/>
		<stop  offset="0.1657" style="stop-color:#877342"/>
		<stop  offset="0.2517" style="stop-color:#95804D"/>
		<stop  offset="0.349" style="stop-color:#AE9861"/>
		<stop  offset="0.4538" style="stop-color:#D3BC7F"/>
		<stop  offset="0.5" style="stop-color:#E6CF90"/>
		<stop  offset="0.5462" style="stop-color:#D3BC7F"/>
		<stop  offset="0.651" style="stop-color:#AE9861"/>
		<stop  offset="0.7483" style="stop-color:#95804D"/>
		<stop  offset="0.8343" style="stop-color:#877342"/>
		<stop  offset="0.9" style="stop-color:#826E3E"/>
	</linearGradient>
	<path fill="url(#SVGID_2_)" d="M29.654,1.786C14.29,1.79,1.798,14.294,1.798,29.658c0,6.185,1.935,11.951,5.591,16.78
		c0.427-1.009,0.922-1.987,1.47-2.933L5.142,24.988l2.49,3.39c0.054,0.076,4.602,5.935,6.817,8.49
		c0.152-0.142,0.313-0.278,0.48-0.415c-0.054-4.145-1.265-17.97-1.28-18.134l-0.533-4.513l2.202,3.987
		c0.068,0.1,5.515,9.857,8.265,14.271c0.403-0.118,0.822-0.21,1.257-0.302c1.562-6.611,4.052-18.761,4.075-18.897l0.937-4.91
		l0.846,4.925c0.016,0.145,2.263,12.363,3.786,18.876l0.068,0.015c0.411,0.065,0.83,0.157,1.227,0.26
		c2.955-4.582,8.676-12.893,8.752-12.988l2.331-3.48l-0.701,4.132c-0.022,0.138-1.607,11.571-1.752,16.244
		c0.267,0.194,0.533,0.396,0.815,0.609c2.141-2.221,6.726-6.539,6.726-6.539l2.346-2.441l-3.526,15.01
		c0.641,0.998,1.212,2.015,1.706,3.089c3.322-4.688,5.059-10.191,5.051-16.004C57.518,16.529,48.392,5.496,36.159,2.556
		C34.072,2.057,31.894,1.786,29.654,1.786"/>
</g>
</svg>
