<?xml version="1.0" encoding="utf-8"?>
<!-- Generator: Adobe Illustrator 16.0.3, SVG Export Plug-In . SVG Version: 6.00 Build 0)  -->
<!DOCTYPE svg PUBLIC "-//W3C//DTD SVG 1.1//EN" "http://www.w3.org/Graphics/SVG/1.1/DTD/svg11.dtd">
<svg version="1.1" id="Layer_1" xmlns="http://www.w3.org/2000/svg" xmlns:xlink="http://www.w3.org/1999/xlink" x="0px" y="0px"
	 width="49.415px" height="50px" viewBox="0 0 49.415 50" enable-background="new 0 0 49.415 50" xml:space="preserve">
<g>
	
		<path id="path3164_3_" fill="#FFFFFF" d="
		M13.688,1.602c0.02,1.356-0.135,2.766-0.011,4.09c1.722,2.521,3.42,5.061,5.168,7.559c-0.018,5.69-0.034,11.38-0.051,17.07
		c-0.625-0.058-1.389,0.275-1.813-0.36c-1.704-1.419-3.144-3.309-3.549-5.533c-0.241-1.711-0.118-3.537,0.75-5.056
		c0.771-1.743,0.861-1.944,2.49-3.573c0.543-0.543,1.194-1.086,2.063-1.737c-0.903-1.406-1.949-3.205-2.171-3.521
		c-1.149-1.737-1.673-2.639-3.258-4.914c-0.278-0.359-0.434-0.577-1.085-1.445c-0.543,0.325-0.761,0.435-1.311,0.78
		C8.529,6.352,6.41,8.189,4.579,10.236c-1.626,1.997-2.889,4.292-3.714,6.716c-0.665,1.962-0.924,4.054-0.854,6.131
		c-0.116,3.041,0.682,6.067,2.095,8.758c1.436,2.84,3.537,5.325,6.044,7.277c-1.826,2.834-3.752,5.604-5.643,8.391
		c-0.473,0.791-1.144,1.73-1.687,2.49c13.138,0,28.121,0,41.259,0c1.412,0,2.606,0,4.126,0c0.695,0.005,1.836-0.012,2.389,0
		c-0.977-1.52-2.714-3.908-3.545-5.233c-1.265-1.88-2.54-3.754-3.773-5.654c4.151-3.205,7.165-7.958,7.983-13.165
		c0.202-2.042,0.223-4.129-0.023-6.168c-0.604-3.725-2.365-7.201-4.834-10.039c-1.69-1.858-3.625-3.388-5.807-4.778
		c-0.703-0.455-0.858-0.567-1.401-0.951c-0.434,0.605-0.651,0.931-1.303,1.8c-1.629,2.388-3.148,4.776-4.669,7.057
		c-0.325,0.543-0.651,1.086-0.651,1.086s0.543,0.543,1.303,1.303c1.521,1.412,2.521,2.341,3.258,3.916
		c0.86,1.465,1.109,3.226,0.882,4.906c-0.129,1.404-0.8,2.716-1.612,3.856c-0.708,0.905-1.544,1.698-2.442,2.41
		c-0.513-0.121-1.613,0.333-1.338-0.566c-0.017-5.51-0.033-11.019-0.05-16.527c1.775-2.526,3.479-5.105,5.229-7.651
		C35.764,3.732,35.732,1.866,35.701,0c-7.329,0-14.658,0-21.987,0C13.705,0.534,13.696,1.068,13.688,1.602z"/>
	<path d="M24.714,49.131c-5.758,0-11.031-0.01-14.85-0.027c-1.875-0.009-3.342-0.019-4.359-0.03
		c-0.517-0.006-0.914-0.013-1.183-0.019c-0.523-0.013-0.762-0.019-0.954-0.329c-0.25-0.404-0.025-0.83,0.416-1.385
		c0.2-0.251,1.521-2.175,3.17-4.639c1.236-1.847,2.11-3.193,2.498-3.813c-0.117-0.098-0.271-0.22-0.46-0.358
		c-0.504-0.369-1.339-1.073-1.862-1.568s-1.375-1.428-1.898-2.078s-1.221-1.639-1.555-2.203c-0.33-0.559-0.781-1.415-1.005-1.909
		c-0.216-0.476-0.436-0.963-0.489-1.082c-0.081-0.184-0.253-0.692-0.349-0.99c-0.125-0.39-0.273-0.855-0.33-1.035
		c-0.074-0.236-0.217-0.916-0.313-1.435c-0.146-0.794-0.201-1.68-0.203-3.266c-0.002-1.322,0.056-2.498,0.147-2.996
		c0.079-0.428,0.217-1.098,0.309-1.494c0.019-0.081,0.188-0.802,0.33-1.062c0.008-0.014,0.02-0.048,0.024-0.068
		c0.006-0.216,0.086-0.466,0.166-0.622c0.039-0.077,0.124-0.264,0.183-0.41c0.062-0.15,0.195-0.472,0.297-0.714
		c0.106-0.251,0.368-0.805,0.584-1.233c0.221-0.438,0.678-1.22,1.02-1.745c0.342-0.526,0.911-1.308,1.268-1.741
		c0.357-0.436,1.092-1.218,1.638-1.743C7.494,8.614,8.211,7.963,8.55,7.684c0.341-0.28,0.87-0.685,1.181-0.901
		c0.314-0.22,0.83-0.545,1.151-0.725c0.289-0.162,0.547-0.285,0.787-0.374l0.387-0.144l0.295,0.288
		c0.145,0.142,0.438,0.471,0.656,0.798c0.191,0.289,1.265,1.874,2.393,3.534c0.922,1.356,1.518,2.32,1.874,2.896
		c0.12,0.193,0.215,0.347,0.268,0.426l0.344,0.516l-0.498,0.369c-0.117,0.086-0.459,0.345-1.115,0.878
		c-0.501,0.406-1.27,1.173-1.68,1.674c-0.504,0.615-0.928,1.283-1.294,2.04c-0.331,0.684-0.551,1.211-0.586,1.326
		c-0.035,0.165-0.139,0.64-0.235,1.076c-0.119,0.534-0.148,1.03-0.114,1.896c0.029,0.722,0.105,1.398,0.145,1.548
		c0.066,0.248,0.154,0.603,0.194,0.791c0.025,0.102,0.219,0.599,0.513,1.214c0.251,0.527,0.706,1.297,0.994,1.681
		c0.291,0.389,0.937,1.098,1.409,1.549c0.514,0.489,1.082,0.974,1.271,1.103l0.271,0.185l2.609-0.045l0.053-18.34l-0.389-0.553
		c-0.284-0.402-0.913-1.314-1.402-2.032c-0.488-0.717-1.434-2.107-2.101-3.091l-1.329-1.957l0.073-4.331h20.064l0.074,4.329
		l-1.22,1.795c-0.606,0.894-1.552,2.285-2.1,3.091c-0.55,0.81-1.228,1.795-1.512,2.197l-0.39,0.552l0.053,18.34l2.609,0.045
		l0.271-0.185c0.189-0.129,0.758-0.613,1.271-1.103c0.472-0.451,1.062-1.086,1.286-1.387c0.257-0.344,0.502-0.686,0.562-0.778
		c0.053-0.083,0.296-0.551,0.572-1.122c0.279-0.576,0.472-1.063,0.497-1.164c0.039-0.178,0.126-0.549,0.19-0.82
		c0.048-0.202,0.121-0.918,0.146-1.575c0.031-0.812-0.001-1.328-0.115-1.842c-0.096-0.429-0.198-0.899-0.233-1.065
		c-0.035-0.115-0.255-0.643-0.586-1.325c-0.328-0.676-0.817-1.468-1.219-1.971c-0.371-0.465-1.135-1.226-1.704-1.693
		c-0.546-0.451-0.803-0.711-1.051-0.963c-0.061-0.061-0.12-0.122-0.186-0.186l-0.39-0.386l0.313-0.45
		c0.096-0.138,0.227-0.334,0.396-0.59c0.218-0.326,0.488-0.732,0.83-1.234c0.617-0.906,1.52-2.233,2.006-2.95
		c0.49-0.721,1.078-1.577,1.31-1.908c0.151-0.215,0.297-0.4,0.427-0.563c0.074-0.094,0.142-0.181,0.2-0.26l0.342-0.465l0.503,0.283
		c0.202,0.113,0.339,0.204,0.472,0.291c0.061,0.04,0.121,0.081,0.19,0.124c0.232,0.146,0.906,0.617,1.533,1.071
		c0.628,0.455,1.639,1.31,2.254,1.905c0.612,0.593,1.4,1.429,1.757,1.863c0.355,0.434,0.923,1.215,1.266,1.741
		c0.342,0.525,0.799,1.308,1.019,1.745c0.22,0.437,0.472,0.967,0.573,1.206c0.094,0.222,0.239,0.56,0.323,0.752
		c0.095,0.214,0.242,0.609,0.338,0.9c0.093,0.283,0.247,0.843,0.344,1.246c0.095,0.399,0.236,1.071,0.315,1.499
		c0.111,0.604,0.148,1.943,0.147,2.996c-0.003,1.606-0.058,2.473-0.211,3.312c-0.113,0.618-0.354,1.58-0.537,2.146
		c-0.132,0.408-0.356,1.082-0.435,1.262c-0.055,0.124-0.28,0.617-0.503,1.1c-0.229,0.494-0.681,1.348-1.006,1.901
		c-0.329,0.561-0.912,1.415-1.3,1.904c-0.382,0.483-1.049,1.254-1.488,1.716c-0.443,0.469-1.282,1.236-1.869,1.712
		c-0.321,0.261-0.804,0.643-1.109,0.87c0.377,0.598,1.192,1.847,2.331,3.545c1.439,2.146,2.847,4.227,3.137,4.642
		c0.644,0.918,0.65,1.115,0.655,1.246l0.01,0.276L45.907,48.8c-0.256,0.266-0.266,0.276-4.749,0.305
		C38.181,49.123,33.416,49.131,24.714,49.131z"/>
	<linearGradient id="SVGID_2_" gradientUnits="userSpaceOnUse" x1="6.168" y1="48.8457" x2="43.2531" y2="11.7606">
		<stop  offset="0" style="stop-color:#BB2C26"/>
		<stop  offset="0.3" style="stop-color:#E07823"/>
		<stop  offset="0.4" style="stop-color:#F7981D"/>
		<stop  offset="0.5" style="stop-color:#E07823"/>
		<stop  offset="1" style="stop-color:#BB2C26"/>
	</linearGradient>
	<path fill="url(#SVGID_2_)" d="M5.086,47.765c2.524,0.034,9.333,0.063,19.628,0.063c10.962,0,17.32-0.011,19.616-0.063
		c-0.366-0.527-1.726-2.539-3.112-4.605c-0.696-1.038-1.353-2.03-1.849-2.794c-0.873-1.343-0.873-1.361-0.873-1.588
		c0-0.452,0.422-0.751,0.552-0.831c0.095-0.061,0.601-0.447,1.21-0.941c0.541-0.438,1.34-1.169,1.744-1.596
		c0.417-0.438,1.05-1.169,1.412-1.627c0.351-0.443,0.898-1.248,1.197-1.757c0.303-0.515,0.736-1.334,0.947-1.789
		c0.238-0.515,0.446-0.97,0.49-1.072c0.036-0.082,0.201-0.557,0.391-1.143c0.165-0.512,0.392-1.418,0.494-1.979
		c0.139-0.754,0.188-1.56,0.19-3.079c0.002-1.413-0.064-2.421-0.126-2.758c-0.075-0.409-0.211-1.052-0.302-1.433
		c-0.088-0.369-0.231-0.892-0.314-1.143c-0.081-0.249-0.215-0.607-0.292-0.782c-0.086-0.196-0.235-0.542-0.331-0.769
		c-0.089-0.21-0.335-0.727-0.536-1.128c-0.199-0.396-0.633-1.137-0.947-1.621c-0.315-0.484-0.856-1.229-1.182-1.625
		c-0.324-0.396-1.082-1.199-1.655-1.754C40.87,9.4,39.902,8.583,39.326,8.165c-0.647-0.47-1.279-0.908-1.462-1.022
		c-0.048-0.03-0.092-0.059-0.135-0.087c-0.078,0.101-0.159,0.208-0.239,0.322c-0.229,0.326-0.811,1.175-1.298,1.892
		c-0.486,0.717-1.39,2.045-2.007,2.951c-0.339,0.496-0.607,0.899-0.823,1.224c-0.037,0.056-0.072,0.109-0.106,0.16
		c0.184,0.182,0.4,0.384,0.768,0.686c0.638,0.525,1.47,1.354,1.895,1.888c0.454,0.57,1.006,1.46,1.371,2.213
		c0.063,0.13,0.617,1.277,0.688,1.618c0.03,0.146,0.137,0.632,0.231,1.059c0.141,0.633,0.182,1.242,0.146,2.176
		c-0.024,0.618-0.096,1.469-0.181,1.826c-0.063,0.266-0.147,0.628-0.188,0.805c-0.069,0.315-0.419,1.083-0.595,1.445
		c-0.196,0.407-0.533,1.08-0.651,1.263c-0.097,0.15-0.388,0.55-0.611,0.85c-0.27,0.361-0.898,1.042-1.432,1.55
		c-0.466,0.444-1.131,1.029-1.437,1.237l-0.613,0.418l-4.3-0.075l-0.058-20.032l0.629-0.891c0.28-0.397,0.953-1.374,1.499-2.179
		c0.548-0.806,1.492-2.196,2.1-3.09l0.987-1.454L33.459,2.28H15.956l-0.045,2.638l1.097,1.616c0.667,0.982,1.612,2.372,2.101,3.088
		c0.486,0.714,1.11,1.619,1.391,2.017l0.627,0.892l-0.058,20.031l-4.3,0.075l-0.614-0.418c-0.305-0.208-0.97-0.793-1.436-1.237
		c-0.533-0.508-1.216-1.259-1.553-1.709c-0.342-0.455-0.838-1.291-1.129-1.902c-0.181-0.381-0.542-1.184-0.609-1.501
		c-0.036-0.167-0.118-0.501-0.179-0.728c-0.089-0.332-0.162-1.173-0.188-1.833c-0.039-0.977,0-1.581,0.144-2.23
		c0.098-0.435,0.204-0.924,0.234-1.068c0.07-0.341,0.624-1.489,0.687-1.618c0.412-0.851,0.89-1.603,1.459-2.298
		c0.463-0.566,1.3-1.4,1.866-1.86c0.279-0.227,0.504-0.406,0.682-0.546c-0.354-0.572-0.932-1.503-1.81-2.795
		c-1.131-1.663-2.207-3.254-2.401-3.546c-0.06-0.09-0.128-0.181-0.195-0.264c-0.065,0.034-0.135,0.07-0.207,0.111
		c-0.284,0.159-0.762,0.46-1.041,0.655c-0.283,0.198-0.786,0.583-1.1,0.841c-0.313,0.256-1.009,0.89-1.521,1.384
		c-0.507,0.488-1.21,1.235-1.535,1.632c-0.326,0.396-0.867,1.14-1.183,1.624c-0.314,0.484-0.749,1.227-0.947,1.621
		c-0.201,0.4-0.452,0.929-0.547,1.154c-0.1,0.236-0.23,0.55-0.29,0.697c-0.068,0.168-0.169,0.393-0.229,0.511
		c-0.008,0.017-0.021,0.058-0.025,0.081c-0.006,0.232-0.096,0.48-0.177,0.633c-0.032,0.076-0.126,0.376-0.21,0.74
		c-0.088,0.381-0.221,1.025-0.297,1.437c-0.062,0.339-0.128,1.346-0.126,2.759c0.002,1.5,0.051,2.322,0.182,3.031
		c0.113,0.614,0.236,1.16,0.273,1.28c0.057,0.179,0.204,0.642,0.328,1.028c0.132,0.409,0.265,0.78,0.298,0.855
		c0.054,0.119,0.272,0.604,0.486,1.077c0.204,0.45,0.635,1.267,0.939,1.782c0.303,0.512,0.966,1.45,1.449,2.051
		c0.484,0.602,1.299,1.494,1.778,1.948c0.482,0.456,1.278,1.127,1.738,1.464c1.139,0.836,1.145,1.057,1.15,1.29
		c0.007,0.233,0.008,0.258-0.915,1.684c-0.526,0.813-1.223,1.868-1.962,2.973C6.923,45.093,5.666,46.944,5.086,47.765z"/>
</g>
</svg>
