<?xml version="1.0" encoding="utf-8"?>
<!-- Generator: Adobe Illustrator 16.0.3, SVG Export Plug-In . SVG Version: 6.00 Build 0)  -->
<!DOCTYPE svg PUBLIC "-//W3C//DTD SVG 1.1//EN" "http://www.w3.org/Graphics/SVG/1.1/DTD/svg11.dtd">
<svg version="1.1" id="Layer_1" xmlns="http://www.w3.org/2000/svg" xmlns:xlink="http://www.w3.org/1999/xlink" x="0px" y="0px"
	 width="49.415px" height="50px" viewBox="0 0 49.415 50" enable-background="new 0 0 49.415 50" xml:space="preserve">
<g>
	
		<path id="path3164_1_" d="
		M13.688,1.602c0.02,1.356-0.135,2.766-0.011,4.09c1.722,2.521,3.42,5.061,5.168,7.559c-0.018,5.69-0.034,11.38-0.052,17.07
		c-0.624-0.058-1.388,0.275-1.812-0.36c-1.704-1.419-3.144-3.309-3.549-5.533c-0.241-1.711-0.118-3.537,0.75-5.056
		c0.771-1.743,0.861-1.944,2.49-3.573c0.543-0.543,1.194-1.086,2.063-1.737c-0.903-1.406-1.949-3.205-2.171-3.521
		c-1.149-1.737-1.673-2.639-3.258-4.914c-0.278-0.359-0.434-0.577-1.085-1.445c-0.543,0.325-0.761,0.435-1.311,0.78
		C8.529,6.352,6.41,8.189,4.579,10.236c-1.626,1.997-2.889,4.292-3.714,6.716c-0.665,1.962-0.924,4.054-0.854,6.131
		c-0.116,3.041,0.682,6.067,2.095,8.758c1.436,2.84,3.537,5.325,6.044,7.277c-1.826,2.834-3.752,5.604-5.643,8.391
		c-0.473,0.791-1.144,1.73-1.687,2.49c13.138,0,28.121,0,41.259,0c1.412,0,2.606,0,4.126,0c0.695,0.005,1.836-0.012,2.389,0
		c-0.977-1.52-2.714-3.908-3.545-5.233c-1.265-1.88-2.54-3.754-3.773-5.654c4.151-3.205,7.165-7.958,7.983-13.165
		c0.202-2.042,0.223-4.129-0.023-6.168c-0.604-3.725-2.365-7.201-4.834-10.039c-1.69-1.858-3.625-3.388-5.807-4.778
		c-0.703-0.455-0.858-0.567-1.401-0.951c-0.434,0.605-0.651,0.931-1.303,1.8c-1.629,2.388-3.148,4.776-4.669,7.057
		c-0.325,0.543-0.651,1.086-0.651,1.086s0.543,0.543,1.303,1.303c1.521,1.412,2.521,2.341,3.258,3.916
		c0.86,1.465,1.109,3.226,0.882,4.906c-0.129,1.404-0.8,2.716-1.612,3.856c-0.708,0.905-1.544,1.698-2.442,2.41
		c-0.513-0.121-1.613,0.333-1.338-0.566c-0.017-5.51-0.033-11.019-0.05-16.527c1.775-2.526,3.479-5.105,5.229-7.651
		C35.764,3.732,35.732,1.866,35.701,0c-7.329,0-14.658,0-21.987,0C13.705,0.534,13.696,1.068,13.688,1.602z"/>
	
		<linearGradient id="path2997_3_" gradientUnits="userSpaceOnUse" x1="9.8789" y1="-418.792" x2="61.9955" y2="-366.6754" gradientTransform="matrix(1 0 0 -1 -8.3599 -364.9453)">
		<stop  offset="0" style="stop-color:#626E77"/>
		<stop  offset="0.3" style="stop-color:#A0B6C2"/>
		<stop  offset="0.4" style="stop-color:#B7D1E1"/>
		<stop  offset="0.5" style="stop-color:#A0B6C2"/>
		<stop  offset="1" style="stop-color:#626E77"/>
	</linearGradient>
	
		<path id="path2997_1_" fill="url(#path2997_3_)" d="
		M3.923,48.383c-0.032-0.053,0.135-0.339,0.371-0.637c0.237-0.297,1.678-2.404,3.202-4.682c1.523-2.277,2.77-4.201,2.768-4.276
		c-0.002-0.074-0.4-0.426-0.886-0.782c-0.485-0.355-1.295-1.038-1.8-1.516c-0.506-0.479-1.333-1.385-1.839-2.014
		s-1.182-1.586-1.502-2.127c-0.319-0.541-0.757-1.371-0.972-1.846s-0.435-0.96-0.488-1.08c-0.053-0.119-0.198-0.534-0.323-0.923
		c-0.125-0.388-0.272-0.852-0.329-1.031c-0.057-0.179-0.188-0.79-0.293-1.357c-0.139-0.752-0.19-1.604-0.192-3.148
		c-0.002-1.273,0.053-2.42,0.137-2.877c0.077-0.418,0.213-1.078,0.303-1.466c0.09-0.389,0.21-0.791,0.267-0.895
		s0.104-0.263,0.104-0.354c0-0.091,0.043-0.25,0.096-0.354c0.053-0.104,0.146-0.311,0.206-0.46c0.061-0.148,0.193-0.467,0.294-0.705
		c0.101-0.239,0.355-0.776,0.565-1.194c0.211-0.418,0.653-1.176,0.983-1.684c0.33-0.507,0.882-1.265,1.225-1.683
		c0.344-0.418,1.058-1.177,1.587-1.688c0.528-0.51,1.23-1.147,1.559-1.418c0.328-0.27,0.842-0.662,1.141-0.87
		c0.298-0.209,0.791-0.52,1.096-0.69c0.318-0.179,0.541-0.274,0.695-0.331c0.108,0.105,0.373,0.397,0.568,0.691
		s1.273,1.887,2.396,3.54c1.256,1.847,1.921,2.991,2.139,3.317c-0.218,0.161-0.603,0.46-1.139,0.896s-1.333,1.23-1.772,1.767
		c-0.536,0.656-0.987,1.366-1.377,2.17c-0.318,0.656-0.604,1.316-0.635,1.465c-0.031,0.149-0.137,0.635-0.235,1.079
		c-0.133,0.595-0.166,1.138-0.13,2.063c0.028,0.691,0.104,1.451,0.167,1.69c0.064,0.239,0.147,0.581,0.187,0.76
		c0.038,0.18,0.291,0.79,0.562,1.357c0.27,0.567,0.747,1.374,1.061,1.792s0.98,1.15,1.481,1.628c0.501,0.479,1.11,1.005,1.354,1.17
		l0.442,0.302l1.728-0.03l1.728-0.029l0.027-9.594l0.028-9.593l-0.509-0.722c-0.279-0.396-0.907-1.308-1.396-2.024
		S17.137,7.883,16.47,6.9l-1.214-1.787l0.03-1.742l0.029-1.742h9.392H34.1l0.029,1.741l0.029,1.741l-1.103,1.624
		c-0.607,0.895-1.552,2.285-2.1,3.091c-0.548,0.807-1.226,1.791-1.506,2.188l-0.51,0.722l0.028,9.593l0.027,9.594l1.728,0.029
		l1.727,0.03l0.443-0.302c0.243-0.165,0.853-0.691,1.354-1.17c0.501-0.478,1.112-1.138,1.358-1.468
		c0.246-0.329,0.511-0.696,0.587-0.814c0.077-0.118,0.353-0.654,0.612-1.192c0.26-0.537,0.506-1.123,0.545-1.303
		c0.04-0.179,0.125-0.545,0.189-0.814c0.064-0.269,0.138-1.033,0.163-1.7c0.034-0.872-0.003-1.436-0.13-2.009
		c-0.098-0.438-0.202-0.919-0.233-1.068c-0.031-0.148-0.317-0.809-0.636-1.465c-0.348-0.716-0.867-1.555-1.295-2.092
		c-0.397-0.5-1.196-1.295-1.799-1.791c-0.655-0.54-0.867-0.787-1.193-1.109c0.218-0.313,0.613-0.924,1.23-1.83
		s1.521-2.233,2.007-2.95c0.487-0.717,1.073-1.571,1.304-1.899c0.23-0.329,0.459-0.596,0.619-0.813
		c0.274,0.154,0.416,0.262,0.635,0.399s0.893,0.608,1.498,1.047c0.604,0.438,1.587,1.269,2.183,1.846s1.363,1.391,1.706,1.809
		s0.894,1.176,1.224,1.683c0.33,0.508,0.772,1.266,0.983,1.684c0.21,0.418,0.459,0.943,0.554,1.167
		c0.096,0.224,0.242,0.566,0.328,0.76c0.085,0.194,0.227,0.573,0.314,0.842c0.089,0.269,0.236,0.806,0.329,1.194
		c0.093,0.388,0.231,1.048,0.309,1.466c0.084,0.458,0.139,1.602,0.137,2.877c-0.003,1.567-0.055,2.397-0.2,3.195
		c-0.108,0.593-0.341,1.521-0.516,2.063c-0.176,0.542-0.361,1.083-0.413,1.202c-0.052,0.12-0.275,0.608-0.497,1.086
		c-0.221,0.479-0.66,1.309-0.977,1.846c-0.315,0.538-0.877,1.361-1.248,1.831s-1.023,1.222-1.45,1.671
		c-0.426,0.45-1.239,1.194-1.807,1.654c-0.567,0.459-1.142,0.903-1.275,0.987c-0.135,0.084-0.245,0.209-0.245,0.278
		s1.176,1.878,2.611,4.019c1.437,2.141,2.852,4.234,3.145,4.652s0.534,0.82,0.537,0.896c0.004,0.108-4.211,0.136-20.727,0.136
		C12.811,48.479,3.957,48.438,3.923,48.383L3.923,48.383z"/>
</g>
</svg>
